<?xml version="1.0" encoding="UTF-8" standalone="no"?>
<!-- Created with Inkscape (http://www.inkscape.org/) -->

<svg
   xmlns:dc="http://purl.org/dc/elements/1.1/"
   xmlns:cc="http://creativecommons.org/ns#"
   xmlns:rdf="http://www.w3.org/1999/02/22-rdf-syntax-ns#"
   xmlns:svg="http://www.w3.org/2000/svg"
   xmlns="http://www.w3.org/2000/svg"
   xmlns:sodipodi="http://sodipodi.sourceforge.net/DTD/sodipodi-0.dtd"
   xmlns:inkscape="http://www.inkscape.org/namespaces/inkscape"
   width="80px"
   height="80px"
   viewBox="0 0 80 80"
   version="1.1"
   id="SVGRoot"
   inkscape:version="0.92.3 (2405546, 2018-03-11)"
   sodipodi:docname="la roche.svg">
  <sodipodi:namedview
     id="base"
     pagecolor="#ffffff"
     bordercolor="#666666"
     borderopacity="1.0"
     inkscape:pageopacity="0.0"
     inkscape:pageshadow="2"
     inkscape:zoom="5.6568543"
     inkscape:cx="39.708086"
     inkscape:cy="53.706117"
     inkscape:document-units="px"
     inkscape:current-layer="layer3"
     showgrid="false"
     inkscape:grid-bbox="true">
    <sodipodi:guide
       position="40,77.833"
       orientation="75.764034,0"
       id="guide104"
       inkscape:locked="false" />
  </sodipodi:namedview>
  <defs
     id="defs10" />
  <metadata
     id="metadata13">
    <rdf:RDF>
      <cc:Work
         rdf:about="">
        <dc:format>image/svg+xml</dc:format>
        <dc:type
           rdf:resource="http://purl.org/dc/dcmitype/StillImage" />
        <dc:title />
      </cc:Work>
    </rdf:RDF>
  </metadata>
  <g
     inkscape:groupmode="layer"
     id="layer3"
     inkscape:label="Calque 2"
     style="display:inline">
    <path
       style="fill:#ffffff;fill-opacity:1;fill-rule:evenodd;stroke:#000000;stroke-width:1px;stroke-linecap:butt;stroke-linejoin:miter;stroke-opacity:1"
       d="m 10.910575,13.887258 c 21.334189,-13.61701558 45.430601,-8.9928026 57.780654,0 C 71.094741,40.400699 66.523554,66.719062 40,76.083744 8.5818452,64.307701 10.280566,37.31464 10.910575,13.887258 Z"
       id="path91"
       inkscape:connector-curvature="0"
       sodipodi:nodetypes="cccc" />
    <path
       style="fill:#5b3231;fill-opacity:1;fill-rule:evenodd;stroke:none;stroke-width:1px;stroke-linecap:butt;stroke-linejoin:miter;stroke-opacity:1"
       d="m 64.298063,23.86965 1.645169,0.622468 -0.0055,-8.656534 C 49.22755,6.0092072 24.978667,8.9505318 13.776288,15.983689 39.201817,3.9987962 58.402337,14.274092 64.309111,15.950543 Z"
       id="path832"
       inkscape:connector-curvature="0"
       sodipodi:nodetypes="cccccc" />
    <path
       style="fill:#c62c27;fill-opacity:1;fill-rule:evenodd;stroke:#1a0b12;stroke-width:0.5;stroke-linecap:butt;stroke-linejoin:miter;stroke-miterlimit:4;stroke-dasharray:none;stroke-opacity:1"
       d="m 14.030409,16.12732 0.07288,7.36668 c 14.226832,-6.043947 30.335017,-8.467208 49.951706,0 v -7.36668 c -16.159853,-6.7896157 -32.27972,-8.2397239 -50.024591,0 z"
       id="path93"
       inkscape:connector-curvature="0"
       sodipodi:nodetypes="ccccc" />
    <g
       id="g844"
       transform="translate(0.8125,-1.5)">
      <text
         transform="scale(0.88079793,1.1353342)"
         id="text920"
         y="26.534348"
         x="45.13348"
         style="font-style:normal;font-variant:normal;font-weight:bold;font-stretch:normal;font-size:9.96750355px;line-height:89.99999762%;font-family:Arial;-inkscape-font-specification:'Arial Bold';text-align:center;letter-spacing:0px;word-spacing:0px;text-anchor:middle;fill:#c62c27;fill-opacity:1;stroke:#000000;stroke-width:0.24918759px;stroke-linecap:butt;stroke-linejoin:miter;stroke-opacity:1"
         xml:space="preserve"><tspan
           style="stroke:#000000;stroke-width:0.24918759px;stroke-opacity:1"
           y="26.534348"
           x="45.13348"
           id="tspan918"
           sodipodi:role="line">FCY</tspan></text>
      <text
         transform="scale(1.0574009,0.94571509)"
         id="text924"
         y="37.591412"
         x="37.090729"
         style="font-style:normal;font-variant:normal;font-weight:bold;font-stretch:normal;font-size:5.73623276px;line-height:89.99999762%;font-family:Impact;-inkscape-font-specification:'Impact Bold';text-align:center;letter-spacing:0px;word-spacing:0px;text-anchor:middle;fill:#c62c27;fill-opacity:1;stroke:#000000;stroke-width:0.14340582px;stroke-linecap:butt;stroke-linejoin:miter;stroke-opacity:1"
         xml:space="preserve"><tspan
           style="stroke:#000000;stroke-width:0.14340582px;stroke-opacity:1"
           y="37.591412"
           x="37.090729"
           id="tspan922"
           sodipodi:role="line">RUGBY</tspan></text>
    </g>
    <path
       style="fill:#c62c27;fill-opacity:1;fill-rule:evenodd;stroke:none;stroke-width:0.97284561px;stroke-linecap:butt;stroke-linejoin:miter;stroke-opacity:1"
       d="m 17.586578,41.040007 c 15.350366,-0.459583 30.118556,0.627913 44.635164,0.0166 -0.02677,1.634894 -0.481877,3.626731 -0.842085,5.539487 H 19.051925 Z"
       id="path963"
       inkscape:connector-curvature="0"
       sodipodi:nodetypes="ccccc" />
    <path
       style="color:#000000;font-style:normal;font-variant:normal;font-weight:normal;font-stretch:normal;font-size:medium;line-height:normal;font-family:sans-serif;font-variant-ligatures:normal;font-variant-position:normal;font-variant-caps:normal;font-variant-numeric:normal;font-variant-alternates:normal;font-feature-settings:normal;text-indent:0;text-align:start;text-decoration:none;text-decoration-line:none;text-decoration-style:solid;text-decoration-color:#000000;letter-spacing:normal;word-spacing:normal;text-transform:none;writing-mode:lr-tb;direction:ltr;text-orientation:mixed;dominant-baseline:auto;baseline-shift:baseline;text-anchor:start;white-space:normal;shape-padding:0;clip-rule:nonzero;display:inline;overflow:visible;visibility:visible;opacity:1;isolation:auto;mix-blend-mode:normal;color-interpolation:sRGB;color-interpolation-filters:linearRGB;solid-color:#000000;solid-opacity:1;vector-effect:none;fill:#595758;fill-opacity:1;fill-rule:evenodd;stroke:none;stroke-width:0.5;stroke-linecap:butt;stroke-linejoin:miter;stroke-miterlimit:4;stroke-dasharray:none;stroke-dashoffset:0;stroke-opacity:1;color-rendering:auto;image-rendering:auto;shape-rendering:auto;text-rendering:auto;enable-background:accumulate"
       d="M 42.130859,36.353516 C 32.756613,36.603392 22.448345,38.325469 15.197805,40.476145 17.176509,48.885641 19.706511,66.295939 40,73.030729 56.801788,67.656751 63.567704,51.932058 64.661143,40.592312 57.944596,38.53155 48.271878,36.589218 42.130859,36.353516 Z m -0.01563,0.49414 c 7.260386,0.233503 13.749835,1.651021 20.050782,3.546875 C 61.793246,53.297579 51.637984,66.938789 40,70.90625 30.757092,67.600022 25.876112,62.595491 22.908203,57.080078 19.974173,51.627624 18.912166,45.675666 17.40625,40.382812 26.792552,37.570295 34.842558,36.613758 42.115234,36.847656 Z"
       id="path834"
       inkscape:connector-curvature="0"
       sodipodi:nodetypes="ccccccccsccc" />
    <path
       style="display:inline;fill:#c62c27;fill-opacity:1;fill-rule:evenodd;stroke:none;stroke-width:0.91612536px;stroke-linecap:butt;stroke-linejoin:miter;stroke-opacity:1"
       d="m 20.616119,52.284369 c 13.076157,0.577516 26.012112,0.593868 38.825739,0.120592 -0.573494,1.652755 -0.827715,3.144715 -3.174389,5.442263 -11.151014,0.337713 -22.162281,0.312893 -32.92058,-0.0051 -1.432764,-1.19302 -1.890448,-3.624225 -2.73077,-5.557798 z"
       id="path963-8"
       inkscape:connector-curvature="0"
       sodipodi:nodetypes="ccccc" />
    <path
       style="fill:#c62c27;fill-opacity:1;fill-rule:evenodd;stroke:none;stroke-width:1px;stroke-linecap:butt;stroke-linejoin:miter;stroke-opacity:1"
       d="m 27.450003,63.285416 c 8.721982,0.683233 17.43539,0.668756 24.44466,0.169854 C 49.104093,66.413468 44.565107,69.911203 40,71.178131 33.808193,69.345934 28.897949,66.104498 27.450003,63.285416 Z"
       id="path980"
       inkscape:connector-curvature="0"
       sodipodi:nodetypes="cccc" />
    <path
       style="fill:#5b3231;fill-opacity:1;fill-rule:evenodd;stroke:none;stroke-width:1px;stroke-linecap:butt;stroke-linejoin:miter;stroke-opacity:1"
       d="m 17.586578,41.040007 -2.096159,0.711081 c 0.38354,1.812936 0.845219,3.709944 1.337388,5.563788 l 2.224118,-0.718809 z"
       id="path110"
       inkscape:connector-curvature="0"
       sodipodi:nodetypes="ccccc" />
    <path
       style="opacity:0.98999999;fill:#5b3231;fill-opacity:1;fill-rule:evenodd;stroke:none;stroke-width:1px;stroke-linecap:butt;stroke-linejoin:miter;stroke-opacity:1"
       d="m 20.765274,52.284369 c 0.659392,1.673294 1.399196,3.623083 2.581615,5.557755 l -1.758035,1.022012 C 20.49376,56.974098 19.494481,55.046515 18.677562,52.980787 Z"
       id="path838"
       inkscape:connector-curvature="0"
       sodipodi:nodetypes="ccccc" />
    <path
       style="fill:#5b3332;fill-opacity:1;fill-rule:evenodd;stroke:none;stroke-width:1px;stroke-linecap:butt;stroke-linejoin:miter;stroke-opacity:1"
       d="M 27.450003,63.285416 C 30.915311,66.478444 34.718569,69.364244 40,70.90625 46.159287,68.942316 48.76726,66.137282 51.894663,63.45527 L 54.15625,64.25 C 49.795253,69.074843 44.776127,71.353552 40,73.030729 35.24367,71.92794 30.203602,69.419836 25.90625,64.40625 Z"
       id="path846"
       inkscape:connector-curvature="0"
       sodipodi:nodetypes="ccccccc" />
    <path
       sodipodi:nodetypes="ccccc"
       inkscape:connector-curvature="0"
       id="path848"
       d="m 62.221742,41.056607 2.321669,0.561922 c -0.205784,1.32411 -0.563207,3.647045 -1.09432,5.607983 l -2.069438,-0.630421 c 0.494023,-1.959432 1.288193,-4.077766 0.842089,-5.539484 z"
       style="fill:#5b3231;fill-opacity:1;fill-rule:evenodd;stroke:none;stroke-width:1px;stroke-linecap:butt;stroke-linejoin:miter;stroke-opacity:1" />
    <path
       sodipodi:nodetypes="ccccc"
       inkscape:connector-curvature="0"
       id="path850"
       d="m 59.666304,52.284393 c -0.659392,1.673294 -2.216416,3.628159 -3.398835,5.562831 l 2.122265,0.928548 c 1.095094,-1.890038 2.271149,-3.762379 3.088068,-5.828107 z"
       style="opacity:0.98999999;fill:#5b3231;fill-opacity:1;fill-rule:evenodd;stroke:none;stroke-width:1px;stroke-linecap:butt;stroke-linejoin:miter;stroke-opacity:1" />
    <path
       sodipodi:nodetypes="cccc"
       inkscape:connector-curvature="0"
       id="path916"
       d="m 17.099949,40.2047 c 19.026694,-5.752171 32.588562,-3.858608 45.337697,0 C 62.158911,53.321987 51.854847,67.185118 40,71.178131 21.292959,64.531308 20.173832,50.868707 17.099949,40.2047 Z"
       style="fill:none;fill-rule:evenodd;stroke:#1a0b12;stroke-width:0.5;stroke-linecap:butt;stroke-linejoin:miter;stroke-miterlimit:4;stroke-dasharray:none;stroke-opacity:1" />
  </g>
</svg>
