<?xml version="1.0" encoding="UTF-8" standalone="no"?>
<!-- Created with Inkscape (http://www.inkscape.org/) -->

<svg
   xmlns:dc="http://purl.org/dc/elements/1.1/"
   xmlns:cc="http://creativecommons.org/ns#"
   xmlns:rdf="http://www.w3.org/1999/02/22-rdf-syntax-ns#"
   xmlns:svg="http://www.w3.org/2000/svg"
   xmlns="http://www.w3.org/2000/svg"
   xmlns:sodipodi="http://sodipodi.sourceforge.net/DTD/sodipodi-0.dtd"
   xmlns:inkscape="http://www.inkscape.org/namespaces/inkscape"
   width="80"
   height="80"
   viewBox="0 0 21.166666 21.166667"
   version="1.1"
   id="svg8"
   inkscape:version="0.92.4 (5da689c313, 2019-01-14)"
   sodipodi:docname="rhinos49.svg">
  <defs
     id="defs2" />
  <sodipodi:namedview
     id="base"
     pagecolor="#ffffff"
     bordercolor="#666666"
     borderopacity="1.0"
     inkscape:pageopacity="0.0"
     inkscape:pageshadow="2"
     inkscape:zoom="6.35"
     inkscape:cx="40"
     inkscape:cy="40"
     inkscape:document-units="px"
     inkscape:current-layer="layer5"
     showgrid="false"
     units="px"
     inkscape:window-width="1366"
     inkscape:window-height="705"
     inkscape:window-x="-8"
     inkscape:window-y="-8"
     inkscape:window-maximized="1"
     inkscape:snap-global="false" />
  <metadata
     id="metadata5">
    <rdf:RDF>
      <cc:Work
         rdf:about="">
        <dc:format>image/svg+xml</dc:format>
        <dc:type
           rdf:resource="http://purl.org/dc/dcmitype/StillImage" />
        <dc:title />
      </cc:Work>
    </rdf:RDF>
  </metadata>
  <g
     inkscape:groupmode="layer"
     id="layer5"
     inkscape:label="Layer1"
     style="display:inline">
    <g
       id="g4834"
       transform="translate(0.04166667,-1.3229167)">
      <path
         sodipodi:nodetypes="cscccccccccccccccsccccccccccccccccccc"
         inkscape:connector-curvature="0"
         id="path885"
         d="m 2.5313593,13.487076 c -0.361298,-0.01684 -0.263302,0.211166 -0.406861,0.250379 -0.216117,0.05903 -0.622022,-0.105853 -1.001506,-0.281676 C 0.82485533,13.089504 0.56658533,12.52389 0.30926933,11.95351 c -0.179371,-0.625945 0.03655,-1.25189 0.125187,-1.877835 -0.166165,-0.329562 -0.380082,-0.599433 -0.06259,-1.533566 -0.73338,-1.578629 -0.237321,-2.665478 0.250377,-3.755671 0.139637,-1.312161 1.03939097,-1.526367 1.90911997,-1.783943 0.436346,-0.44862 0.857203,-0.540992 1.251883,-0.0313 1.054389,0.0027 2.039313,-0.255083 3.411379,0.938917 1.028608,-0.331037 2.080608,-0.299518 3.1922987,0.657243 0.377354,-0.05246 0.728409,0.05286 1.0641,0.250378 0.227144,-0.211591 0.461887,-0.421109 1.323373,-0.459697 -0.175899,0.352964 -0.508862,0.775732 -0.447055,1.023048 2.232331,1.150777 3.533297,2.541453 3.81824,4.193832 l 1.377071,1.126702 c 0.223869,1.217341 1.173757,1.642654 2.019447,2.181641 0.442489,1.287845 1.407581,1.320633 1.544621,1.704915 0.298579,0.837266 -0.301643,2.089198 -0.771362,2.433592 -0.0498,1.013751 -1.098222,2.437439 -1.331832,2.347294 l -0.592555,0.05752 c -0.495346,0.295563 -0.877684,0.763055 -1.676943,0.809959 -0.392973,0.05389 -0.71549,-0.0966 -1.050052,-0.276361 -0.334449,0.501903 -0.747928,1.216512 -1.415203,1.206382 -4.247914,-0.11299 -4.4311477,-1.942555 -5.1377607,-3.399032 -0.777019,0.724774 -1.56431,0.691368 -2.761409,1.446941 l -0.406862,0.500757 c -0.276357,0.210027 -0.643317,0.352103 -1.251882,0.312973 -0.775936,-0.262414 -1.186764,-0.976877 -1.470961,-1.690053 -1.231662,-1.680569 -0.05328,-2.527355 0.187782,-3.067131 0.407935,-2.076975 1.293387,-2.24387 2.003011,-3.114078 -0.492867,-0.857347 -0.922441,-1.636751 -0.84502,-2.73851 L 4.2527013,8.93332 3.7519493,9.606211 c 1.046458,0.937151 0.808036,0.838396 0.907614,2.691564 -0.11506,0.492399 -0.365108,0.748568 -0.813723,0.657242 -0.365187,0.297885 -0.678096,0.846637 -1.314477,0.532054 z"
         style="display:inline;fill:#26d03a;fill-opacity:1;stroke:none;stroke-width:0.06196521px;stroke-linecap:butt;stroke-linejoin:miter;stroke-opacity:1" />
      <path
         style="display:inline;opacity:1;fill:#000000;fill-opacity:1;stroke:none;stroke-width:0.06196521px;stroke-linecap:butt;stroke-linejoin:miter;stroke-opacity:1"
         d="m 3.0624883,13.210445 c -0.361298,-0.01684 -0.936106,-0.06425 -1.148229,0.117595 -0.293283,-0.01279 -0.160039,0.0087 -0.536768,-0.171023 -0.187595,-0.421546 -0.47052497,-0.698199 -0.79159297,-1.236702 0.06238,-0.749561 0.116982,-1.922566 0.04505,-1.958533 0,0 -0.145187,-0.712828 -8.9e-4,-1.583983 C 0.04011733,6.815108 0.40371333,6.004142 0.86344433,4.91084 1.1152953,3.758987 1.6380363,3.588363 2.4870933,3.301256 c 0.38467,-0.355602 0.808221,-0.45061 1.296143,-0.108754 0.263598,6.79e-4 -0.0259,0.193532 0.662325,0.09784 1.490992,-0.207302 2.579212,0.910275 2.51209,0.893089 l 0.358681,0.09183 c 1.028609,-0.331037 1.881435,-0.299518 2.9931267,0.657242 0.377353,-0.05246 0.728409,0.0086 1.0641,0.206117 0.260393,-0.188929 0.520786,-0.307643 0.781179,-0.349044 l -0.218613,0.722653 c 0.396235,0.188385 0.687406,0.481836 0.999792,0.75407 1.47463,0.387947 2.62667,1.922445 2.921961,3.585244 0.572316,0.382944 0.952593,0.765888 1.388136,1.148832 0.315129,1.377047 1.266971,1.648098 2.096904,2.159511 0.297586,0.332052 0.431189,0.631971 0.582221,0.908108 0.16624,0.303941 0.698628,0.376835 0.829617,0.708284 0.32671,0.826695 -0.224186,1.646587 -0.693905,1.990982 -0.15243,1.07611 -0.439434,1.540294 -1.143725,2.303033 l -0.526163,-0.01993 c -0.484549,0.276128 -0.691094,0.613088 -1.610552,0.876351 -0.392973,0.05389 -0.815076,-0.162992 -1.149638,-0.342752 -0.33445,0.501903 -0.979247,1.12973 -1.53692,1.305969 -0.557674,0.176239 -1.75366,-0.253033 -2.16251,-0.916868 -0.289718,-0.470406 -0.04749,0.02726 -0.303268,-0.009 l -0.70107,-0.09937 C 10.125224,19.276432 10.245194,19.063083 10.224647,18.903054 9.2269093,17.75154 9.4487113,17.644977 9.1663303,16.893372 c -0.102617,0.724775 -1.846527,1.355284 -3.137625,2.110858 l -0.351536,0.46756 c -0.276358,0.210027 -0.399883,0.241451 -1.008448,0.20232 -0.775936,-0.262413 -0.888005,-0.821962 -1.172202,-1.535139 -1.011066,-1.63645 -0.02341,-2.184996 0.165652,-2.735174 0.407935,-2.076974 1.51469,-2.387718 2.224315,-3.257925 C 5.4151873,11.913465 4.9323423,10.833089 4.8201623,9.219253 4.6347063,8.932144 4.4791933,8.645035 4.2637573,8.357926 3.9489103,8.83573 3.3152903,9.171855 3.4753103,9.860711 c 1.061914,0.929423 0.847006,0.608672 0.752702,2.558782 -0.11506,0.103279 -0.265522,0.185263 -0.714137,0.314219 -0.114375,0.04288 -0.124709,0.415988 -0.451392,0.476727 z"
         id="path888"
         inkscape:connector-curvature="0"
         sodipodi:nodetypes="cccccccccsscccccccccssccccczsscccccccccccccccc" />
      <path
         sodipodi:nodetypes="cscccccccccccccccsccccccccccccccccccccccc"
         inkscape:connector-curvature="0"
         id="path892"
         d="m 5.1400463,3.524474 c -1.163365,0.463803 -1.658201,1.30102 -1.80473,2.188516 -0.142822,0.86504 0.230797,1.766798 0.754351,2.333748 l 0.256695,0.05386 c -0.02859,-0.335274 -0.0495,-0.670575 0.106502,-1.005849 0.126389,0.203332 -0.426132,0.742691 0.619166,2.198199 0.145394,3.446269 2.20671,3.744227 5.3303657,3.630902 l -0.17662,-0.278598 c -0.03758,-0.339916 -0.0082,-0.67026 0.144626,-0.982974 0.253186,-0.407996 0.444032,-0.791056 0.560952,-1.144544 C 10.879264,8.913977 10.311025,7.42492 10.77511,5.706458 10.493166,5.553413 10.2664,5.424232 10.215247,5.201779 10.076304,5.147229 9.9481613,5.089018 9.8300233,4.998092 9.2344213,4.879835 8.2362813,5.155011 8.2079203,5.482438 l -0.07153,-0.04091 C 8.2871733,5.103985 8.8336213,4.888145 9.4447953,4.869196 9.0729563,4.27938 7.7843743,4.264247 7.2680323,4.561426 c 0.03482,0.07968 0.148595,0.537103 0.111949,0.444046 C 7.3442813,4.914812 6.9929163,4.255837 6.7251123,4.41087 6.5280373,3.850363 6.0870263,3.668362 5.1400423,3.524474 Z m 2.12799,1.036952 c -0.0076,-0.0175 -0.01273,-0.02289 -0.01017,0.0067 0.0033,-0.0023 0.0068,-0.0044 0.01017,-0.0067 z m 5.3863567,1.810067 c -0.299526,-0.01027 -0.64737,-0.105977 -0.260205,1.098677 -0.519835,1.011275 -1.491797,1.939483 -1.16376,3.397072 0.427205,0.261459 0.827859,0.628974 1.278247,0.867248 0.376557,-0.06973 0.417479,0.0131 0.60606,0.02882 0.04397,0.04067 0.07426,0.108681 0.09904,0.187736 0.543266,-0.09134 1.370881,0.137068 2.415788,-1.51307 0.06355,-2.027744 -0.995868,-3.277674 -2.975167,-4.066481 z m -2.104511,6.732688 c -2.5289467,3.259801 -1.2644727,1.6299 0,0 z m 0,0 c -2.5289467,3.259801 -1.2644727,1.6299 0,0 z M 6.0945743,4.406149 C 4.0560653,4.790137 4.3629333,6.544025 4.7411473,7.586838 4.4620343,7.066503 4.3576543,6.499015 4.3803703,6.074254 4.3444403,5.894391 3.9382043,5.698713 3.5541303,5.391423 c 0.410271,0.01636 0.70877,0.370025 0.862669,0.603074 0.04699,-1.291131 0.828209,-1.556169 1.677775,-1.588348 z"
         style="display:inline;opacity:1;fill:#26d03a;fill-opacity:1;stroke:none;stroke-width:0.0619652px;stroke-linecap:butt;stroke-linejoin:miter;stroke-opacity:1" />
      <path
         sodipodi:nodetypes="ccccsccc"
         inkscape:connector-curvature="0"
         id="path894"
         d="m 15.733567,10.674331 c 0.328234,0.318251 0.145698,0.944498 0.396887,1.027751 -0.345869,0.621013 -0.792522,1.164956 -1.420926,1.56991 -0.707723,-0.184778 -0.936245,-0.540701 -1.191669,-0.887016 0.92728,-0.674792 1.230766,-0.306217 1.532353,-0.852442 0.09479,-0.171678 0.314547,0.400191 0.314547,0.400191 0.03654,-0.0355 -0.06829,-0.522547 -0.136153,-0.585014 0.129622,-0.214052 0.310953,-0.338253 0.504961,-0.67338 z"
         style="display:inline;opacity:1;fill:#474cac;fill-opacity:1;stroke:none;stroke-width:0.06196521px;stroke-linecap:butt;stroke-linejoin:miter;stroke-opacity:1" />
      <path
         sodipodi:nodetypes="ccccsc"
         inkscape:connector-curvature="0"
         id="path896"
         d="m 4.6008573,3.559483 c -0.03686,-0.1769 -0.257119,-0.117418 -0.44285,-0.145448 -1.232007,0.546 -2.251431,3.908268 -0.620235,4.725482 L 3.9036483,7.98623 c -0.702178,-0.8658 -0.762863,-1.656985 -0.710041,-2.427084 0.05371,-0.783039 0.686309,-1.425581 1.40725,-1.999663 z"
         style="display:inline;fill:#474cac;fill-opacity:1;stroke:none;stroke-width:0.06196521px;stroke-linecap:butt;stroke-linejoin:miter;stroke-opacity:1" />
      <path
         style="display:inline;opacity:1;fill:#ffffff;fill-opacity:1;stroke:none;stroke-width:0.06196521px;stroke-linecap:butt;stroke-linejoin:miter;stroke-opacity:1"
         d="M 5.8540773,9.768247 C 5.3437233,8.047698 5.7819373,7.017025 6.4093913,6.123978 8.1975813,4.791043 10.42902,5.518963 11.060141,6.471051 11.416331,7.697167 11.006711,9.150959 10.608949,10.601222 9.2063423,11.931283 6.9205073,11.608031 5.8540773,9.768247 Z"
         id="path910"
         inkscape:connector-curvature="0"
         sodipodi:nodetypes="ccccc" />
      <path
         sodipodi:nodetypes="ccccc"
         inkscape:connector-curvature="0"
         id="path908"
         d="M 5.8540773,9.768247 C 5.3437233,8.047698 5.7819373,7.017025 6.4093913,6.123978 8.2927543,4.870354 10.448809,5.535453 11.060141,6.471051 11.416331,7.697167 11.006711,9.150959 10.608949,10.601222 9.2063423,11.931283 6.9205073,11.608031 5.8540773,9.768247 Z"
         style="display:inline;fill:none;stroke:#000000;stroke-width:0.15491302;stroke-linecap:butt;stroke-linejoin:miter;stroke-miterlimit:4;stroke-dasharray:none;stroke-opacity:1" />
      <path
         sodipodi:nodetypes="ccccc"
         inkscape:connector-curvature="0"
         id="path953"
         d="m 11.201569,10.946714 c 0.383457,0.279223 0.633245,0.647558 1.170906,0.823977 -0.713882,0.254373 -0.583578,0.622827 -0.621592,0.968534 -0.39842,-0.01888 -0.502471,-0.193485 -0.744465,-0.281887 -0.138878,-0.129467 -0.36707,-1.224667 0.195151,-1.510624 z"
         style="display:inline;fill:#26d03a;fill-opacity:1;stroke:none;stroke-width:0.06196521px;stroke-linecap:butt;stroke-linejoin:miter;stroke-opacity:1" />
      <path
         sodipodi:nodetypes="ccscccccccccccccccccccc"
         inkscape:connector-curvature="0"
         id="path956"
         d="m 6.2938823,4.781348 0.69387,1.503395 0.115645,-0.231292 c 0.09329,-0.186574 1.822476,-0.25776 2.139433,-0.173469 0.396455,0.101068 0.607658,0.500623 0.7950597,0.809522 0.315754,-0.642309 0.451091,-0.594319 0.604768,-0.701827 0.636181,-0.653127 1.381149,-1.342805 1.433476,-1.090684 -0.44139,0.836577 -0.119903,1.661175 -1.069716,2.139448 -0.143351,0.310195 -0.297826,0.625952 -0.592681,1.0119 l 0.737237,1.48894 c -0.0058,0.425035 -0.01415,0.852583 -0.05782,1.315472 -0.266396,0.433248 -0.460053,0.888878 -0.23129,1.474483 l 0.318024,0.867344 -1.098628,2.428562 -1.0986277,0.02891 c -0.408796,-0.05981 -0.960785,-0.463277 -1.561208,-0.982989 -0.241741,-0.200753 -0.404769,-0.558932 -0.607137,-0.838433 0.0028,-0.791125 0.0768,-0.870277 0.115645,-1.301015 -0.233254,-0.318026 -0.476893,-0.636052 -0.636047,-0.954079 -0.19127,-0.466263 -0.285577,-1.174935 -0.404758,-1.82142 0.08587,-0.509911 0.133255,-0.981326 0.289113,-1.561219 -1.161683,-1.541223 -0.646499,-1.289922 -0.809516,-1.763598 0.134384,-0.94704 0.526841,-1.304197 0.925161,-1.647953 z"
         style="display:inline;fill:#000000;fill-opacity:1;stroke:none;stroke-width:0.06196521px;stroke-linecap:butt;stroke-linejoin:miter;stroke-opacity:1" />
      <path
         sodipodi:nodetypes="cccccccccccccccccccscccccccccccccccccccccccccccccccccccccccccccccccccccccccccccccccczcccccscccccc"
         inkscape:connector-curvature="0"
         id="path958"
         d="m 6.2071283,5.243892 c -0.368082,0.373996 -0.388158,0.438515 -0.635989,1.272106 0.16303,0.473726 -0.06454,0.674321 0.896193,1.532313 -0.155858,0.579894 -0.333357,1.195955 -0.419232,1.705865 0.119182,0.646485 0.170112,1.340657 0.361382,1.806921 0.159154,0.318026 0.37393,0.650547 0.607184,0.968573 -0.03884,0.430738 -0.08397,0.480981 -0.08677,1.272106 0.198491,0.302761 0.305899,0.835838 0.57826,0.852872 0.600422,0.519712 1.109104,0.865319 1.5179,0.925124 0.53994,-0.308953 0.754052,-0.58169 0.954044,-0.852872 l 0.6794357,-0.968572 c 0.06089,-0.438997 0.01169,-0.856407 -0.46268,-1.026303 -0.0157,-0.352379 -0.0333,-0.705747 0.101298,-0.982974 0.36188,-0.277266 0.770455,-1.626512 0.650391,-2.124978 L 10.269229,8.004984 C 10.564085,7.619036 10.414887,7.722514 10.558238,7.412319 10.488648,7.163851 10.370384,7.015268 10.151229,7.028545 10.061259,6.923075 9.9531483,6.865852 9.7488203,7.065335 9.7782503,6.857626 9.6681903,6.25568 9.2717383,6.154613 8.8720563,5.977254 7.8209543,5.980653 7.1291043,6.299602 6.8223753,6.441007 6.9967033,7.148597 6.8561923,7.521967 7.0318963,6.42841 6.4522113,5.888942 6.2071333,5.24389 Z m -0.159028,0.361385 c 0.278301,0.111671 0.386925,0.408598 0.506007,0.693964 0.0206,0.186238 -0.299806,0.807063 0.02892,1.488865 C 6.4514383,7.648007 6.2850863,7.567093 6.2216463,7.311141 5.5033513,6.771382 5.9744243,5.807114 6.1809763,6.007689 6.5687433,6.246957 6.1246663,5.788077 6.0480903,5.605277 Z m 2.903279,0.630062 c 0.547995,0.04868 0.620679,0.343452 0.649543,0.660803 C 9.2955013,6.202995 9.1531563,6.42941 8.9513793,6.235339 Z M 10.136217,8.09406 C 9.2838883,8.282176 9.1041973,8.671998 8.7683883,9.197334 8.9177023,8.701324 9.1274683,8.115452 10.136217,8.09406 Z M 6.6068743,8.66857 c 0.556193,-0.0019 0.880719,0.275923 1.108109,0.67097 0.197926,0.26649 0.203208,0.02503 0.620255,0.869211 l 0.143173,-0.0041 c -0.02291,-0.299428 0.180192,-0.741201 0.247981,-0.860496 -0.128609,0.481796 -0.1578,0.669424 -0.0098,1.173349 0.03625,-0.222706 8.06e-4,-0.32402 0.226197,-0.452154 -0.119764,0.223994 -0.08324,0.544178 -0.06281,0.854445 l 0.356056,0.0084 c 0.267567,-0.05864 0.209183,-0.138273 0.2596,-0.19691 -6.71e-4,-0.470906 0.0117,-0.917501 0.175971,-1.080522 L 10.111291,9.399392 C 9.8469023,9.625976 9.6056243,9.780518 9.7092453,10.128212 9.9457123,9.902037 10.156939,9.796967 10.337488,9.839201 c -0.08856,0.05365 -0.239978,0.07246 -0.238784,0.175972 0.402939,0.637826 0.0059,0.769656 -0.3267677,0.94231 0.2825437,0.05999 0.5151057,-0.266053 0.7163487,-0.439809 l -0.07128,0.201146 c -0.205235,0.135565 -0.2011,0.377448 -0.5947187,0.364288 -0.03707,0.01687 -0.05329,0.05749 -0.01246,0.163385 -0.245935,-0.345273 -0.404368,-0.316401 -0.527792,-0.138212 0.0071,0.267663 -0.149753,0.484118 0.02517,0.80422 l 0.314061,0.452275 c -0.140524,-0.04076 -0.552988,-0.501136 -0.533964,-0.504922 l -1.086687,0.299661 c -0.126226,-0.02617 -0.36595,0.256526 -0.502861,0.444045 0.05711,-0.209039 0.148756,-0.395162 0.339356,-0.515208 -0.203225,-0.214275 -0.02881,-0.71254 -0.201145,-0.779045 l -0.238662,-0.05023 -0.38958,0.289011 0.06293,-0.138212 c -0.332785,0.06945 -0.516167,-0.159944 -0.707878,-0.37264 0.232591,0.146739 0.449317,0.369962 0.745517,0.209254 -0.817012,-0.132605 -0.544739,-0.516538 -0.544494,-0.837742 -0.0042,-0.09459 -0.121415,-0.126444 -0.22196,-0.167501 0.233004,0.03004 0.471132,0.0557 0.628243,0.150799 -0.02742,-0.227729 -0.242374,-0.419692 -0.502619,-0.603074 0.205371,0.08762 0.426574,0.151374 0.565431,0.339237 0.136317,0.312747 0.161743,0.676708 0.42722,0.929844 0.223267,0.03401 0.414597,0.06094 0.561194,-0.11316 0.109829,-0.36238 0.04132,-0.697341 -0.284772,-0.992656 0.225921,0.13017 0.364694,0.310914 0.456507,0.619896 0.106596,-0.566253 -0.245155,-0.851076 -0.47805,-1.232531 -0.403398,-0.262507 -0.717016,-0.510814 -1.222478,-0.666734 0.03918,-0.0027 0.07729,-0.0041 0.114369,-0.0042 z m 2.943338,2.563336 c 0.244741,0.08694 0.260084,0.184412 0.260084,0.419477 -0.111318,-0.147403 -0.127813,-0.0031 -0.193036,0.117395 0.126288,0.10137 0.133971,0.135999 0.11328,0.285259 -0.124413,-0.06162 -0.288096,-0.165985 -0.323017,-0.335606 -0.03492,-0.169622 0.03185,-0.505175 0.142689,-0.486525 z m -2.200968,0.25234 c 0.01405,2.54e-4 0.02892,0.0014 0.04478,0.0035 0.19974,0.133542 0.173245,0.286171 0.226559,0.432064 -0.03786,0.183069 -0.168291,0.27352 -0.255847,0.406889 -0.0106,-0.08943 -0.06592,-0.154432 0.03776,-0.306196 -0.03235,-0.05419 -0.02841,-0.108726 -0.104929,-0.167863 -0.02101,-0.01623 -0.06861,0.05277 -0.125866,0.07976 -0.02101,-0.237304 -0.03325,-0.451929 0.177544,-0.44816 z m 0.41306,2.285095 c 0.684999,0.823509 1.138905,1.073499 2.069171,0.05749 -0.605287,0.792015 -1.240605,1.284931 -2.069171,-0.05749 z"
         style="display:inline;opacity:1;fill:#8b8d91;fill-opacity:1;stroke:none;stroke-width:0.0619652px;stroke-linecap:butt;stroke-linejoin:miter;stroke-opacity:1" />
      <path
         sodipodi:nodetypes="cccccc"
         inkscape:connector-curvature="0"
         id="path976"
         d="m 10.685428,7.235332 c -0.104667,-0.15212 -0.194633,-0.363047 -0.349463,-0.314519 0.0081,-0.290597 0.01754,-0.579477 0.194701,-0.649007 0.430754,-0.334614 0.860449,-0.669758 1.213137,-1.043405 -0.06363,0.750269 -0.49566,1.01424 -0.878651,1.342947 -0.106597,0.114609 -0.166316,0.336368 -0.179724,0.663984 z"
         style="display:inline;opacity:1;fill:#909196;fill-opacity:1;stroke:none;stroke-width:0.06196521px;stroke-linecap:butt;stroke-linejoin:miter;stroke-opacity:1" />
      <path
         sodipodi:nodetypes="ccccc"
         inkscape:connector-curvature="0"
         id="path978"
         d="m 10.820221,6.920813 c 0.03642,-0.110395 0.0425,-0.257194 0.139786,-0.29455 0.296432,-0.265837 0.457847,-0.371751 0.639019,-0.688946 -0.03525,0.219361 -0.152897,0.434676 -0.294548,0.693939 -0.196429,0.1159 -0.352808,0.251635 -0.484257,0.289557 z"
         style="display:inline;opacity:1;fill:#929397;fill-opacity:1;stroke:none;stroke-width:0.06196521px;stroke-linecap:butt;stroke-linejoin:miter;stroke-opacity:1" />
      <g
         transform="matrix(0.23419846,0,0,0.23419999,6.7564624,13.036648)"
         id="g994"
         style="display:inline">
        <path
           style="fill:#ffffff;fill-opacity:1;stroke:#000000;stroke-width:0.26458332px;stroke-linecap:butt;stroke-linejoin:miter;stroke-opacity:1"
           d="m 7.0097945,-12.379111 c -1.0508674,1.670736 -1.8225778,3.8000868 -2.3008079,6.411584 0.4768724,1.2431909 0.1894841,2.951135 3.5279053,2.4541949 C 7.9656574,-6.4865654 8.13884,-9.5177661 7.0097945,-12.379111 Z"
           id="path988"
           inkscape:connector-curvature="0"
           sodipodi:nodetypes="cccc" />
        <path
           style="fill:#ffffff;fill-opacity:1;stroke:#000000;stroke-width:0.26458332px;stroke-linecap:butt;stroke-linejoin:miter;stroke-opacity:1"
           d="m 7.0097945,-12.379111 c 0.910968,2.246645 0.9703466,5.6955333 1.2270973,8.8657788 L 9.8627961,-4.2189131 C 10.04048,-8.4540324 9.019932,-10.301186 7.0097945,-12.379111 Z"
           id="path990"
           inkscape:connector-curvature="0"
           sodipodi:nodetypes="cccc" />
      </g>
      <g
         transform="matrix(0.23419846,0,0,0.23419999,6.7564624,13.036648)"
         id="g986"
         style="display:inline">
        <path
           style="fill:#ffffff;fill-opacity:1;stroke:#000000;stroke-width:0.26458332px;stroke-linecap:butt;stroke-linejoin:miter;stroke-opacity:1"
           d="M 6.6508042,-7.9945523 C 5.5029007,-5.2442033 4.9565721,-2.1329094 4.9454699,1.2995204 6.7076486,5.4815709 8.4698273,4.7308456 10.232006,4.2838557 9.441385,0.14066391 9.1546578,-4.0655146 6.6508042,-7.9945523 Z"
           id="path980"
           inkscape:connector-curvature="0"
           sodipodi:nodetypes="cccc" />
        <path
           style="fill:#ffffff;fill-opacity:1;stroke:#000000;stroke-width:0.26458332px;stroke-linecap:butt;stroke-linejoin:miter;stroke-opacity:1"
           d="M 6.6508042,-7.9945523 C 8.7559827,-4.7763862 9.655486,-0.18223233 10.232006,4.2838557 10.974836,4.1431703 12.102694,2.0456679 12.11464,2.0655779 12.565323,-2.4241537 9.4603554,-4.4759648 6.6508042,-7.9945523 Z"
           id="path982"
           inkscape:connector-curvature="0"
           sodipodi:nodetypes="cccc" />
      </g>
      <g
         id="g4723"
         style="display:inline"
         transform="matrix(0.23419846,0,0,0.23419999,6.7564624,-51.563508)">
        <path
           style="fill:#ffffff;fill-opacity:1;stroke:none;stroke-width:0.26458332px;stroke-linecap:butt;stroke-linejoin:miter;stroke-opacity:1"
           d="m -0.46528161,264.3228 c 1.85441581,0.58301 2.76217251,1.93454 2.94257801,3.60773 -4.3241508,0.22759 -3.20153291,-2.67737 -2.94257801,-3.60773 z"
           id="path1008"
           inkscape:connector-curvature="0"
           sodipodi:nodetypes="ccc" />
        <path
           style="fill:#ff1200;fill-opacity:0.76146785;stroke:none;stroke-width:0.26458332px;stroke-linecap:butt;stroke-linejoin:miter;stroke-opacity:1"
           d="m -0.58045149,266.89688 2.64328679,-0.51794 c 0.2360952,0.51794 0.3493965,1.03588 0.4197111,1.55382 -1.2130364,0.0548 -2.5164749,-0.0626 -3.06299789,-1.03588 z"
           id="path4718"
           inkscape:connector-curvature="0"
           sodipodi:nodetypes="cccc" />
        <ellipse
           style="opacity:1;fill:#000000;fill-opacity:1;fill-rule:nonzero;stroke:none;stroke-width:0.66145831;stroke-linecap:round;stroke-miterlimit:4;stroke-dasharray:none;stroke-opacity:1;paint-order:normal"
           id="path4713"
           cx="1.2859234"
           cy="266.53073"
           rx="0.84835219"
           ry="0.82156211" />
      </g>
      <g
         transform="matrix(-0.23419846,0,0,0.23419999,10.162748,-51.847644)"
         style="display:inline"
         id="g4735">
        <path
           sodipodi:nodetypes="ccc"
           inkscape:connector-curvature="0"
           id="path4729"
           d="m 0.62343863,264.16151 c 1.85441577,0.58301 1.83474417,2.14624 2.01514967,3.81943 -4.4085049,-0.55843 -2.31526673,-3.4055 -2.01514967,-3.81943 z"
           style="fill:#ffffff;fill-opacity:1;stroke:none;stroke-width:0.26458332px;stroke-linecap:butt;stroke-linejoin:miter;stroke-opacity:1" />
        <path
           sodipodi:nodetypes="cccc"
           inkscape:connector-curvature="0"
           id="path4731"
           d="m -0.10716316,265.69014 2.52282446,0.61823 c 0.1389345,0.48556 0.1575795,1.16817 0.222927,1.67257 -1.93407518,-0.24052 -2.94962131,-0.95246 -2.74575146,-2.2908 z"
           style="fill:#ff1200;fill-opacity:0.76146785;stroke:none;stroke-width:0.26458332px;stroke-linecap:butt;stroke-linejoin:miter;stroke-opacity:1" />
        <ellipse
           ry="0.82156211"
           rx="0.84835219"
           cy="266.31903"
           cx="1.6488301"
           id="ellipse4733"
           style="opacity:1;fill:#000000;fill-opacity:1;fill-rule:nonzero;stroke:none;stroke-width:0.66145831;stroke-linecap:round;stroke-miterlimit:4;stroke-dasharray:none;stroke-opacity:1;paint-order:normal" />
      </g>
      <path
         sodipodi:nodetypes="cssc"
         inkscape:connector-curvature="0"
         id="path4739"
         d="m 10.212811,13.026529 c -2.6652347,2.960458 0.01466,7.184764 2.912797,7.719374 0.423322,0.07809 0.855047,0.25184 1.22349,0.09996 3.00855,-1.24019 0.71852,-9.411188 -4.136287,-7.819334 z"
         style="display:inline;opacity:1;fill:#ffffff;fill-opacity:1;stroke:#000000;stroke-width:0.15491302;stroke-linecap:butt;stroke-linejoin:miter;stroke-miterlimit:4;stroke-dasharray:none;stroke-opacity:1" />
      <path
         sodipodi:nodetypes="cccccc"
         inkscape:connector-curvature="0"
         id="path4743"
         d="m 12.384834,13.007643 -0.774373,0.26442 c 1.800147,2.386093 2.735717,4.829525 3.361913,7.158279 -1.264002,-2.661451 -2.077223,-5.59337 -4.759563,-7.403813 1.549376,-0.215823 1.633385,-0.0643 2.172023,-0.01888 z"
         style="display:inline;fill:#22d138;fill-opacity:1;stroke:none;stroke-width:0.06196521px;stroke-linecap:butt;stroke-linejoin:miter;stroke-opacity:1" />
      <path
         sodipodi:nodetypes="ccccc"
         inkscape:connector-curvature="0"
         id="path4761"
         d="m 9.6461973,17.786123 c -0.13995,-2.310439 0.222166,-3.198347 0.6799367,-3.81523 0.587851,-0.133 1.491446,0.535885 3.58856,4.041877 -0.776069,-1.765474 -1.565812,-3.453096 -3.656338,-4.977131 -1.9078597,2.057001 -0.7766997,4.389896 -0.6121587,4.750484 z"
         style="display:inline;fill:#929397;fill-opacity:1;stroke:none;stroke-width:0.06196521px;stroke-linecap:butt;stroke-linejoin:miter;stroke-opacity:1" />
      <path
         style="display:inline;opacity:1;fill:none;fill-opacity:1;stroke:#000000;stroke-width:0.15491302;stroke-linecap:butt;stroke-linejoin:miter;stroke-miterlimit:4;stroke-dasharray:none;stroke-opacity:1"
         d="m 10.212811,13.026529 c -2.4016297,2.272688 -0.8241367,7.736459 4.136287,7.819333 3.00855,-1.24019 0.71852,-9.411188 -4.136287,-7.819333 z"
         id="path4759"
         inkscape:connector-curvature="0"
         sodipodi:nodetypes="ccc" />
      <path
         sodipodi:nodetypes="ccccc"
         inkscape:connector-curvature="0"
         id="path4745"
         d="m 9.9483913,15.972945 c 0.1196587,-0.508673 0.1552537,-1.067786 0.5099527,-1.435433 1.585565,0.781048 1.697704,1.733829 2.039813,2.512008 -0.331874,-0.795552 -0.863293,-1.748942 -1.983151,-2.172036 -0.271626,0.158267 -0.384316,0.713874 -0.5666147,1.095461 z"
         style="display:inline;fill:#54b361;fill-opacity:1;stroke:none;stroke-width:0.06196521px;stroke-linecap:butt;stroke-linejoin:miter;stroke-opacity:1" />
      <path
         sodipodi:nodetypes="cccccccccccccccccccccccccccccscscccccccccccccccccccccccccc"
         inkscape:connector-curvature="0"
         id="path899"
         d="m 3.1733843,3.182938 c -0.136866,0.0066 -0.26739,0.03215 -0.355815,0.18408 l 0.159511,0.09815 -0.110496,0.07358 C 1.9959603,3.276857 1.6594453,3.769115 1.3327083,4.275071 1.0410013,4.590622 1.0535193,5.149435 0.91553433,5.587963 l -0.07358,-0.220872 c -0.169608,0.432311 -0.370385,0.804024 -0.294575,1.497094 l 0.147287,-0.159513 c -0.204364,0.956926 0.06862,1.262848 0.196304,1.766982 -0.265835,0.609454 -0.160465,1.218889 0.06136,1.828343 -0.13627,0.06441 -0.265926,0.159405 -0.09815,1.632039 0.27556697,0.401325 0.42128597,0.87848 0.87126197,1.178068 0.15134,0.048 0.302626,0.05337 0.453966,-0.06136 0.194306,0.04702 0.432336,0.05031 0.674959,0.04902 0.156464,-0.0324 0.26371,-0.08125 0.313456,-0.149225 -0.582462,-0.106631 -0.559335,-0.126712 -0.672418,-0.16629 -0.169059,-0.476912 0.109249,-1.131331 0.09827,-2.147005 0.174715,-0.132402 0.352461,-0.263859 0.376994,-0.442472 l 0.180207,-0.868604 0.229464,0.884944 c 0.452822,0.531266 0.54514,1.084383 0.660315,1.638936 l -0.447192,-0.573664 c -0.108968,0.461548 -0.02023,0.896474 -0.0029,1.326448 0.352232,-0.04771 0.482076,-0.244253 0.613598,-0.386557 0.02632,-0.417805 0.06779,-0.840652 0,-1.227085 0.03832,-0.169904 -0.266815,-0.739551 -0.871262,-1.202516 l 0.09453,-0.676782 C 3.0453913,8.9488 3.4752493,8.518855 2.9689783,7.838144 2.3930083,6.868603 2.2554213,8.430858 2.3184413,7.587275 c 0.02809,-0.375952 0.02284,-0.700808 0.05933,-1.070871 -0.08808,0.0048 -0.660834,-1.028354 -0.392735,-1.753752 0.117724,-0.318529 -0.220689,1.02888 0.544173,1.64429 -0.01276,-0.195158 -3.1e-4,-0.314649 0.0098,-0.4411 -0.07672,-0.140665 -0.373284,-0.534426 -0.128418,-1.053212 0.134647,-0.202498 -0.106729,0.649304 0.171669,0.897237 -0.136229,-0.92692 1.065638,-2.339302 1.131379,-2.262415 -0.182275,-0.08055 -0.009,-0.277809 -0.540283,-0.364515 z m -0.594598,0.411973 c 0.162144,0.08272 0.382686,0.0081 0.454813,0.333185 0.01728,0.144596 -0.01776,0.257926 -0.06366,0.144868 -0.0459,-0.113058 -0.215375,-0.334774 -0.391153,-0.478053 z m -1.141149,4.952997 c 0.264153,1.386706 0.187123,1.561861 0.933832,2.161407 -0.906697,0.0029 -0.837834,-1.035189 -0.933832,-2.161407 z m 0.755683,3.468852 c 0.03561,0.0031 0.07019,0.01904 0.105413,0.02675 -0.02052,0.12811 -0.187271,0.19871 0.0016,0.409069 l -0.03558,0.249072 c -0.195734,-0.219426 -0.190977,-0.338583 -0.26674,-0.498022 0.07369,-0.161982 0.135978,-0.192108 0.195335,-0.186866 z m -0.684036,0.09876 c 0.02588,0.0012 0.05267,0.0049 0.07842,0.0058 l -0.05228,0.171131 c 0,0 0.180025,0.23449 0.17113,0.243384 -0.0089,0.0089 -0.01997,0.219178 -0.01997,0.219178 -0.16649,-0.05397 -0.232052,-0.264943 -0.329069,-0.42698 0.0051,-0.195915 0.07413,-0.216087 0.151766,-0.212522 z"
         style="opacity:0.63999999;fill:#929397;fill-opacity:1;stroke:none;stroke-width:0.0619652px;stroke-linecap:butt;stroke-linejoin:miter;stroke-opacity:1" />
      <path
         sodipodi:nodetypes="cccccccccccccccc"
         inkscape:connector-curvature="0"
         id="path901"
         d="m 4.9300013,13.468915 c 0.853832,-0.63517 1.558744,-0.265749 1.913229,-0.160522 -0.153189,0.216915 -0.04561,0.41849 -0.01735,0.624732 -0.185308,0.638939 -0.431312,1.202007 -0.659435,1.787426 0.09712,0.539943 0.02495,1.067793 -0.03471,1.596538 -1.460379,2.673903 0.683658,0.301591 1.596526,-0.347073 -0.404836,0.626797 -1.060475,1.179827 -1.648586,1.752719 -1.270923,0.352183 -1.023531,-0.562654 -1.422991,-1.180049 0.127465,0.429176 0.233716,1.388476 0.954445,1.336232 0.06834,0.09759 0.0236,0.203252 -0.06941,0.312366 -0.233669,0.230304 -0.551142,0.209189 -0.850324,0.242951 -0.901992,-0.558855 -0.950716,-1.094954 -1.006506,-1.631244 l -0.08677,0.13883 c -0.514942,-1.048321 -0.04,-1.787808 0.09544,-2.125824 l 0.09544,0.303689 c 0.225869,-1.082808 0.733238,-2.132013 1.140996,-2.650771 z"
         style="fill:#929397;fill-opacity:1;stroke:none;stroke-width:0.06196521px;stroke-linecap:butt;stroke-linejoin:miter;stroke-opacity:1" />
      <path
         sodipodi:nodetypes="cccccccccccccccccccc"
         inkscape:connector-curvature="0"
         id="path4764"
         d="m 12.975392,11.774911 c -0.645424,-0.0404 -1.31637,0.236761 -1.134271,1.075608 0.339258,0.927345 0.961766,0.801861 1.428508,1.405613 0.137228,0.0474 -0.07284,0.782978 -0.431132,1.312742 -0.409885,0.197963 -0.87699,0.224263 -1.19294,0.704034 -0.724953,-0.166189 -1.146137,0.0929 -1.623179,0.273792 -0.1913847,0.0466 -0.6626097,1.235169 0.21512,1.711194 1.215944,-0.05525 1.216924,-0.08536 1.720961,-0.127117 0.33772,-0.3123 0.524331,-0.486444 0.70403,-0.625808 l -0.606247,0.801816 -0.899594,-0.02933 c -0.205305,-0.126856 -0.607489,0.157543 -0.762699,0.381352 -0.197024,0.554865 -0.08313,0.817167 0.59647,1.163612 0.401358,0.124403 0.827437,0.100478 1.280943,-0.088 -0.06594,0.205415 -0.06733,0.364725 0.04889,0.440022 0.543998,0.446005 1.178797,0.120207 1.769853,0.16623 0.476831,-0.358728 0.546644,-0.636052 0.792033,-0.948491 0.16308,-0.0089 0.319647,-0.03525 0.405795,-0.249345 0.08206,0.231892 0.541458,0.626522 0.670908,0.561961 -0.259248,-2.650603 -1.397221,-5.57416 -2.98345,-7.929876 z"
         style="opacity:1;fill:#000000;fill-opacity:1;stroke:none;stroke-width:0.06196521px;stroke-linecap:butt;stroke-linejoin:miter;stroke-opacity:1" />
      <path
         sodipodi:nodetypes="ccccccccccccccccccccccccccccccccccccccccccccccccccccccccccccccccc"
         inkscape:connector-curvature="0"
         id="path903"
         d="m 16.597643,11.073119 c -0.155117,1.151575 -0.683925,1.874535 -1.294972,2.374777 l 0.238178,0.168952 c 1.358447,-1.763102 2.512071,-0.56916 3.779382,0.956954 -0.670368,-0.616599 -1.324892,-1.079215 -2.059974,-1.242818 -0.515508,-0.115199 -0.913948,0.354707 -1.30066,0.883492 l 0.564462,0.63805 -0.736318,-0.319025 c -0.342389,-0.380873 -0.525654,-0.885537 -1.42338,-0.834477 -0.309331,-0.48403 -0.421588,-0.442548 -0.539895,-0.417176 -0.135829,-0.349273 -0.48702,-0.596395 -0.636818,-0.573833 -0.07935,-0.230931 -0.242755,-0.528082 -0.338574,-0.603706 -0.715982,-0.244086 -1.086974,0.761656 -0.124103,1.35132 0.424277,0.324707 0.660113,0.363391 0.816659,1.084057 -0.0019,0.45303 -0.277488,1.078282 -0.919672,1.711781 l 0.04902,-0.245441 c -0.31086,0.02253 -0.621761,0.214724 -0.932621,0.564466 -0.494416,-0.10479 -1.035549,0.02448 -1.595115,0.245442 -0.2572677,0.474354 -0.01109,0.804767 0.171735,1.153379 l 1.619804,-0.04902 0.662614,-0.638171 0.785334,0.171857 -0.466311,0.09815 -0.760766,0.957076 c -0.319905,0.07276 -0.678635,0.106761 -1.128925,0.04914 -0.13978,0.08465 -0.264461,0.108817 -0.466311,0.441745 0.252353,0.393199 0.517262,0.698847 0.834471,0.63805 0.665787,0.04068 1.354886,-0.222167 2.085993,-1.030659 0.161436,-0.0049 0.397775,-0.122269 0.441743,0.04901 l -0.270007,0.147289 c -0.136029,0.231626 0.01824,0.318151 -0.58891,0.785339 -0.172686,-0.108269 -0.351899,-0.171118 -0.589031,0.171736 0.106856,0.176116 -0.12537,0.444692 0.638046,0.441746 1.04106,-0.153503 1.279799,-0.222565 1.07991,-0.245442 0.10406,-0.269388 0.161149,-0.527005 0.515326,-0.858922 l 0.319023,-0.04901 0.294455,-0.490882 0.515447,-0.171858 c -0.131333,0.165747 -0.387107,0.165587 -0.343591,0.564467 0.425388,0.25319 0.850825,0.547249 1.276213,0.613603 0.485454,-0.259074 0.853593,-0.484692 0.883485,-0.613603 -0.974077,-0.405562 -0.932079,-0.620546 -0.883485,-0.834355 0.402377,0.409716 1.089686,0.439443 1.668819,0.613482 0.323342,-0.313275 0.744546,-0.606945 0.760766,-0.981644 0.114528,-0.409583 0.229064,-0.776174 0.343591,-1.055227 -0.179918,0.130997 -0.418294,0.144966 -0.662614,0.147168 0.29467,-0.269278 0.623438,-0.402019 0.858917,-0.90806 -0.220874,-1.480748 -0.343587,-1.833725 -0.564462,-2.233297 -0.544785,-0.379232 -1.063591,-0.524732 -1.668819,-1.447956 l -0.07358,0.196425 c -0.246052,-0.843148 -0.522978,-1.316501 -0.83447,-1.374374 z m -1.990263,5.434803 c -0.09925,0.146348 -0.06177,0.116348 -0.282111,0.238784 -0.165858,0.09216 -0.352621,0.472498 -0.541225,0.589761 -0.67943,-0.115125 -0.604873,-0.332439 -0.684762,-0.495844 0.190719,0.088 0.294502,0.165942 0.592662,0.209859 0.468131,-0.671699 0.6473,-0.427016 0.915436,-0.54256 z m 0.674959,1.067451 c -0.130404,0.240023 -0.357017,0.50869 -0.414028,0.883612 -0.07214,0.056 -0.157749,0.119962 -0.268435,0.199088 l -0.336692,0.0092 c -0.204327,-0.08274 -0.173446,-0.19052 -0.209253,-0.291189 l 0.436781,-0.03643 c 0.161412,-0.259063 0.290208,-0.429311 0.409429,-0.573302 0.155019,-0.103885 0.268659,-0.147429 0.382198,-0.190979 z"
         style="fill:#929397;fill-opacity:1;stroke:none;stroke-width:0.0619652px;stroke-linecap:butt;stroke-linejoin:miter;stroke-opacity:1" />
      <path
         sodipodi:nodetypes="cccc"
         inkscape:connector-curvature="0"
         id="path905"
         d="m 20.12551,14.932294 0.239281,0.184064 c 0.136424,0.2725 -0.04588,0.837898 -0.171791,0.926452 z"
         style="fill:#929397;fill-opacity:1;stroke:none;stroke-width:0.06196521px;stroke-linecap:butt;stroke-linejoin:miter;stroke-opacity:1" />
    </g>
  </g>
</svg>
