<?xml version="1.0" encoding="UTF-8" standalone="no"?>
<!-- Created with Inkscape (http://www.inkscape.org/) -->

<svg
   xmlns:dc="http://purl.org/dc/elements/1.1/"
   xmlns:cc="http://creativecommons.org/ns#"
   xmlns:rdf="http://www.w3.org/1999/02/22-rdf-syntax-ns#"
   xmlns:svg="http://www.w3.org/2000/svg"
   xmlns="http://www.w3.org/2000/svg"
   xmlns:sodipodi="http://sodipodi.sourceforge.net/DTD/sodipodi-0.dtd"
   xmlns:inkscape="http://www.inkscape.org/namespaces/inkscape"
   version="1.1"
   id="svg2"
   xml:space="preserve"
   width="80"
   height="80"
   viewBox="0 0 80.000001 80.000001"
   sodipodi:docname="BRKS-Logo-HD.ai"
   inkscape:version="0.92.3 (2405546, 2018-03-11)"><metadata
     id="metadata8"><rdf:RDF><cc:Work
         rdf:about=""><dc:format>image/svg+xml</dc:format><dc:type
           rdf:resource="http://purl.org/dc/dcmitype/StillImage" /><dc:title></dc:title></cc:Work></rdf:RDF></metadata><defs
     id="defs6"><clipPath
       clipPathUnits="userSpaceOnUse"
       id="clipPath18"><path
         d="M 0,190.589 H 193.667 V 0 H 0 Z"
         id="path16"
         inkscape:connector-curvature="0" /></clipPath></defs><sodipodi:namedview
     pagecolor="#ffffff"
     bordercolor="#666666"
     borderopacity="1"
     objecttolerance="10"
     gridtolerance="10"
     guidetolerance="10"
     inkscape:pageopacity="0"
     inkscape:pageshadow="2"
     inkscape:window-width="640"
     inkscape:window-height="480"
     id="namedview4"
     showgrid="false"
     inkscape:zoom="3.0182749"
     inkscape:cx="129.11133"
     inkscape:cy="127.05933"
     inkscape:current-layer="g10" /><g
     id="g10"
     inkscape:groupmode="layer"
     inkscape:label="BRKS-Logo-HD"
     transform="matrix(1.3333333,0,0,-1.3333333,0,80.000002)"><g
       id="g12"
       transform="matrix(0.27643001,0,0,0.27642861,3.1665165,3.6488257)"><g
         id="g14"
         clip-path="url(#clipPath18)"><g
           id="g20"
           transform="translate(83.008,78.3308)"><path
             d="m 0,0 c 1.105,0 2.173,0.188 2.593,-0.182 0.422,-0.37 1.316,-0.421 1.683,0 0.368,0.42 1.685,1.106 2.738,1.21 1.051,0.108 3.258,0.339 4.107,0.04 0.169,-0.061 0.328,-0.13 0.482,-0.205 0.032,-0.021 0.884,-0.547 1.416,-1.073 0.104,-0.108 0.193,-0.212 0.275,-0.313 0.442,-0.612 0.519,-0.998 0.413,-1.182 -0.101,-0.177 0.381,-0.605 0.592,-0.72 0.002,-0.001 0.003,-0.001 0.004,-0.003 l 0.004,-0.003 h 0.003 c 0.2,-0.119 0.422,-0.188 0.526,-0.273 0.103,-0.088 0.249,-0.28 0.308,-0.49 -0.003,-0.022 0.004,-0.056 0.019,-0.092 0.026,-0.192 -0.028,-0.392 -0.257,-0.543 C 14.38,-4.178 14.309,-4.04 13.608,-4.214 12.906,-4.391 11.783,-4.322 10.731,-4.391 9.678,-4.46 9.642,-4.46 9.223,-4.322 8.802,-4.178 8.347,-3.9 7.644,-3.97 6.943,-4.04 5.981,-5.18 4.79,-5.18 c -1.193,0 -1.514,0.888 -2.443,1.182 -0.5,0.16 -2.906,0.144 -3.809,-0.627 -1.111,-0.947 -0.641,-4.192 -0.148,-5.068 0.49,-0.878 2.328,-1.406 2.995,-1.369 0.667,0.035 1.302,1.51 1.687,1.723 0.386,0.21 0.668,0.138 1.089,-0.142 0.42,-0.278 0.174,-0.595 0.876,-0.808 0.702,-0.207 1.017,-0.211 1.228,-0.211 0.21,0 0.56,-0.453 -0.175,-0.453 -0.738,0 -1.192,-0.246 -1.579,0 -0.387,0.245 -0.737,0.491 -1.053,0.351 -0.316,-0.141 -0.865,-1.016 -0.163,-1.12 0.702,-0.105 1.929,0.141 2.877,-0.562 0.946,-0.701 2.35,-1.435 2.946,-1.998 0.595,-0.561 1.368,-1.264 1.789,-1.475 0.42,-0.209 1.929,-1.052 2.279,-0.734 0.352,0.315 2.386,1.613 3.404,3.05 1.015,1.439 3.262,4.139 4.034,5.33 0.771,1.194 1.438,2.666 1.823,3.211 0.387,0.543 0.806,0.578 0.771,1.981 -0.017,0.707 -0.071,1.325 -0.142,1.819 -0.185,1.503 -0.289,1.676 -0.289,2.604 0,0.928 -0.972,4.289 -3.595,4.596 -0.011,0.002 -0.024,0.004 -0.034,0.004 -0.16,0.035 -0.326,0.06 -0.506,0.076 C 16.442,6.337 9.896,7.34 7.842,8.286 5.791,9.233 -0.256,8.772 -0.897,8.364 -1.758,7.814 -1.021,5.721 -1.484,4.812 -1.966,3.863 -2.446,1.208 -2.129,0.682 -1.813,0.157 -1.105,0 0,0"
             style="fill:#e42080;fill-opacity:1;fill-rule:nonzero;stroke:none"
             id="path22"
             inkscape:connector-curvature="0" /></g><g
           id="g24"
           transform="translate(100.0994,37.0404)"><path
             d="m 0,0 c -0.65,0 -1.011,-0.788 -1.011,-2.182 0,-1.404 0.361,-2.185 1.011,-2.185 0.651,0 1.013,0.781 1.013,2.185 C 1.013,-0.788 0.651,0 0,0"
             style="fill:#e42080;fill-opacity:1;fill-rule:nonzero;stroke:none"
             id="path26"
             inkscape:connector-curvature="0" /></g><g
           id="g28"
           transform="translate(93.24,37.0404)"><path
             d="m 0,0 c -0.65,0 -1.012,-0.788 -1.012,-2.182 0,-1.404 0.362,-2.185 1.012,-2.185 0.65,0 1.011,0.781 1.011,2.185 C 1.011,-0.788 0.65,0 0,0"
             style="fill:#e42080;fill-opacity:1;fill-rule:nonzero;stroke:none"
             id="path30"
             inkscape:connector-curvature="0" /></g><g
           id="g32"
           transform="translate(106.3014,31.1297)"><path
             d="m 0,0 c -1.108,0 -1.843,0.565 -2.111,0.887 -0.137,0.159 -0.147,0.232 -0.021,0.361 l 0.672,0.661 c 0.064,0.06 0.17,0.085 0.256,0.032 0,0 0.755,-0.513 1.267,-0.513 0.575,0 1.013,0.428 1.013,1.013 0,0.574 -0.406,1.032 -1.098,1.032 h -1.64 c -0.213,0 -0.331,0.203 -0.331,0.374 v 3.301 c 0,0.107 0.086,0.203 0.203,0.203 h 3.431 c 0.115,0 0.201,-0.096 0.201,-0.203 V 6.213 C 1.842,6.104 1.756,6.01 1.641,6.01 H -0.555 V 4.867 H 0.202 C 1.672,4.867 2.63,3.835 2.63,2.441 2.63,1.108 1.492,0 0,0 m -6.202,0 c -1.736,0 -2.726,1.397 -2.726,3.729 0,2.332 0.99,3.728 2.726,3.728 1.738,0 2.728,-1.396 2.728,-3.728 C -3.474,1.397 -4.464,0 -6.202,0 m -6.859,0 c -1.738,0 -2.728,1.397 -2.728,3.729 0,2.332 0.99,3.728 2.728,3.728 1.736,0 2.726,-1.396 2.726,-3.728 0,-2.332 -0.99,-3.729 -2.726,-3.729 m -4.305,1.469 c 0.106,0 0.203,-0.094 0.203,-0.203 V 0.309 c 0,-0.106 -0.097,-0.201 -0.203,-0.201 h -4.26 c -0.116,0 -0.204,0.095 -0.204,0.201 v 0.213 c 0.618,0.812 2.196,2.951 2.824,3.91 0.139,0.212 0.278,0.512 0.278,0.81 0,0.406 -0.342,0.768 -0.938,0.768 -0.436,0 -0.831,-0.309 -1.034,-0.533 -0.085,-0.085 -0.213,-0.085 -0.298,0 l -0.65,0.659 c -0.073,0.065 -0.086,0.192 -0.011,0.277 0,0 0.864,1.044 2.13,1.044 1.524,0 2.419,-0.968 2.419,-2.153 0,-0.563 -0.16,-0.884 -0.416,-1.384 -0.34,-0.606 -1.213,-1.748 -1.715,-2.451 z m 29.114,16.259 c -0.702,0 -1.896,0.422 -2.841,1.791 -0.949,1.37 -2.28,4.875 -2.844,7.578 -0.559,2.698 -0.455,6.102 -0.455,8.733 0,2.631 0.035,3.438 -0.07,3.649 -0.106,0.208 -0.632,-0.316 -1.121,-0.948 -0.493,-0.631 -1.44,-0.595 -1.686,0.56 -0.245,1.159 0.563,1.825 0.563,1.825 0,0 -0.107,-0.947 0.736,-0.947 0.841,0 1.578,0.947 2.735,2.631 1.158,1.682 1.474,2.738 1.368,4.948 C 8.028,49.756 6.029,49.23 5.713,49.021 5.398,48.809 4.452,46.599 3.61,45.652 2.766,44.704 2.241,44.704 2.241,44.704 c 0,0 -1.052,-5.471 -1.474,-10.418 -0.42,-4.945 -0.946,-9.364 -5.576,-14.626 -4.633,-5.263 -11.683,-5.895 -17.89,-4.947 -3.07,0.469 -4.671,2.121 -5.396,4.026 -0.331,-0.023 -1.965,-0.147 -4.147,-0.388 l -12.78,-2.277 c -0.608,-0.142 -1.282,-0.386 -1.939,-0.649 9.826,-12.929 22.539,-23.025 37.999,-30.205 15.387,6.882 28.043,16.873 37.867,29.514 -1.215,0.359 -2.796,0.789 -4.741,1.241 -5.121,1.194 -11.715,1.753 -12.416,1.753"
             style="fill:#e42080;fill-opacity:1;fill-rule:nonzero;stroke:none"
             id="path34"
             inkscape:connector-curvature="0" /></g><g
           id="g36"
           transform="translate(86.0886,62.478)"><path
             d="m 0,0 c -2.397,0.297 -3.794,1.347 -3.794,1.347 0,0 -0.551,-4.294 -0.8,-4.993 -0.25,-0.699 0.301,-2.846 2.197,-2.746 1.898,0.1 2.747,1.099 3.995,0.499 1.248,-0.599 3.944,-1.149 4.993,0.151 1.048,1.299 2.247,3.445 2.247,3.445 0,0 -2.148,1.149 -3.994,1.996 C 2.995,0.549 2.396,-0.301 0,0"
             style="fill:#e42080;fill-opacity:1;fill-rule:nonzero;stroke:none"
             id="path38"
             inkscape:connector-curvature="0" /></g><g
           id="g40"
           transform="translate(104.052,160.832)"><path
             d="M 0,0 C 0,0.354 -0.284,0.603 -0.62,0.603 H -1.312 V -0.638 H -0.62 C -0.284,-0.638 0,-0.354 0,0"
             style="fill:#e42080;fill-opacity:1;fill-rule:nonzero;stroke:none"
             id="path42"
             inkscape:connector-curvature="0" /></g><g
           id="g44"
           transform="translate(103.4584,159.043)"><path
             d="m 0,0 h -0.718 v -1.268 h 0.807 c 0.345,0 0.637,0.284 0.637,0.648 C 0.726,-0.267 0.346,0 0,0"
             style="fill:#e42080;fill-opacity:1;fill-rule:nonzero;stroke:none"
             id="path46"
             inkscape:connector-curvature="0" /></g><g
           id="g48"
           transform="translate(86.0725,161.4431)"><path
             d="M 0,0 H -1.31 V -1.382 H 0 c 0.363,0 0.674,0.337 0.674,0.708 C 0.674,-0.301 0.363,0 0,0"
             style="fill:#e42080;fill-opacity:1;fill-rule:nonzero;stroke:none"
             id="path50"
             inkscape:connector-curvature="0" /></g><g
           id="g52"
           transform="translate(72.4918,161.407)"><path
             d="M 0,0 H -0.851 V -3.587 H 0 c 1.001,0 1.727,0.789 1.727,1.799 C 1.727,-0.787 1.001,0 0,0"
             style="fill:#e42080;fill-opacity:1;fill-rule:nonzero;stroke:none"
             id="path54"
             inkscape:connector-curvature="0" /></g><g
           id="g56"
           transform="translate(113.0937,127.3927)"><path
             d="M 0,0 H 4.741 L 2.371,19.152 Z"
             style="fill:#e42080;fill-opacity:1;fill-rule:nonzero;stroke:none"
             id="path58"
             inkscape:connector-curvature="0" /></g><g
           id="g60"
           transform="translate(81.3941,146.545)"><path
             d="M 0,0 -2.369,-18.915 H 2.373 Z"
             style="fill:#e42080;fill-opacity:1;fill-rule:nonzero;stroke:none"
             id="path62"
             inkscape:connector-curvature="0" /></g><g
           id="g64"
           transform="translate(122.2165,160.0964)"><path
             d="M 0,0 -0.665,-1.462 H 0.682 L 0.009,0 Z"
             style="fill:#e42080;fill-opacity:1;fill-rule:nonzero;stroke:none"
             id="path66"
             inkscape:connector-curvature="0" /></g><g
           id="g68"
           transform="translate(63.7265,147.6152)"><path
             d="m 0,0 h -2.37 v -13.886 h 1.922 c 1.834,0 2.953,0.805 2.953,3.309 V -3.22 C 2.505,-0.981 1.744,0 0,0"
             style="fill:#e42080;fill-opacity:1;fill-rule:nonzero;stroke:none"
             id="path70"
             inkscape:connector-curvature="0" /></g><g
           id="g72"
           transform="translate(65.9364,160.832)"><path
             d="M 0,0 C 0,0.354 -0.284,0.603 -0.62,0.603 H -1.312 V -0.638 H -0.62 C -0.284,-0.638 0,-0.354 0,0"
             style="fill:#e42080;fill-opacity:1;fill-rule:nonzero;stroke:none"
             id="path74"
             inkscape:connector-curvature="0" /></g><g
           id="g76"
           transform="translate(65.3428,159.043)"><path
             d="m 0,0 h -0.718 v -1.268 h 0.806 c 0.346,0 0.638,0.284 0.638,0.648 C 0.726,-0.267 0.346,0 0,0"
             style="fill:#e42080;fill-opacity:1;fill-rule:nonzero;stroke:none"
             id="path78"
             inkscape:connector-curvature="0" /></g><g
           id="g80"
           transform="translate(138.5757,160.0964)"><path
             d="M 0,0 -0.665,-1.462 H 0.682 L 0.009,0 Z"
             style="fill:#e42080;fill-opacity:1;fill-rule:nonzero;stroke:none"
             id="path82"
             inkscape:connector-curvature="0" /></g><g
           id="g84"
           transform="translate(48.7276,139.8064)"><path
             d="m 0,0 v 4.589 c 0,2.239 -0.761,3.22 -2.503,3.22 H -4.872 V -3.31 h 1.924 C -1.116,-3.31 0,-2.506 0,0"
             style="fill:#e42080;fill-opacity:1;fill-rule:nonzero;stroke:none"
             id="path86"
             inkscape:connector-curvature="0" /></g><g
           id="g88"
           transform="translate(173.0766,113.4816)"><path
             d="m 0,0 c -6.654,-3 -26.019,-13.677 -30.184,-16.54 -4.087,-2.504 -7.774,1.175 -3.044,5.276 5.452,4.733 36.208,23.342 48.15,26.959 C 12.154,7.911 6.65,3.007 0,0 M 12.046,1.417 C 10.03,-5.035 6.406,-9.098 -1.355,-11.735 c -7.757,-2.641 -24.402,-10.986 -27.635,-12.569 -3.425,-1.954 -4.7,2.357 -1.277,4.532 3.2,2.041 31.604,17.716 42.313,21.189 M -7.079,-24.075 c -5.129,-1.266 -18.781,-5.646 -21.497,-6.398 -2.452,-1.026 -4.662,1.362 -0.815,3.575 4.439,2.552 28.964,13.052 37.783,14.94 -2.98,-6.894 -10.338,-10.845 -15.471,-12.117 m -3.93,-10.066 c -4.626,-0.449 -15.532,-1.356 -18.059,-1.731 -2.114,-0.412 -3.696,2.001 -0.233,3.285 3.867,1.438 26.081,7.423 32.17,7.214 -4.047,-6.632 -9.253,-8.324 -13.878,-8.768 m -6.824,-9.002 c -5.289,0.562 -9.446,0.803 -11.1,1.022 -2.233,0.238 -4.43,3.458 0.276,4.182 5.181,0.803 21.561,1.313 24.818,0.55 -2.752,-4.116 -7.92,-6.398 -13.994,-5.754 m -4.881,-7.905 c -2.924,0.757 -4.918,1.264 -8.047,2.178 -2.75,0.801 -3.446,4.477 1.066,4.314 4.511,-0.163 14.875,-1.757 18.11,-3.094 -3.049,-3.061 -6.788,-4.526 -11.129,-3.398 m -5.613,-6.251 c -1.559,0.614 -3.348,1.269 -5.379,2.359 -2.371,1.266 -2.481,5.041 1.872,3.854 4.913,-1.343 10.516,-3.15 12.154,-4.056 -1.521,-1.725 -4.619,-3.742 -8.647,-2.157 m -4.771,-5.038 c -2.042,1.514 -3.437,2.468 -4.686,3.432 -2.058,1.586 0.15,3.364 2.101,2.58 1.952,-0.781 5.475,-2.103 10.308,-4.753 -2.537,-2.245 -5.818,-2.672 -7.723,-1.259 m 1.244,-3.892 c -7.907,-11.225 -17.935,-20.369 -29.586,-27.779 -1.96,-1.245 -4.15,-2.569 -6.737,-3.946 -1.99,-1.055 -5.798,-3.284 -7.397,-3.284 -1.748,0 -5.253,2.303 -7.396,3.451 -14.807,7.921 -27.297,18.416 -36.693,31.988 0.745,0.314 1.316,0.563 1.842,0.857 0.095,0.06 0.193,0.122 0.285,0.191 0.411,0.303 0.791,0.581 1.15,0.843 0.519,0.463 1.098,1.066 1.846,1.92 2.047,2.331 4.012,-1.444 6.039,0.087 l 0.013,-0.025 c 0.304,0.262 0.595,0.532 0.915,0.779 1.333,1.032 2.764,1.866 4.236,2.538 l -0.026,0.012 c 1.193,0.592 2.591,2.214 -0.677,1.257 -3.264,-0.957 -7.547,0.081 -9.162,2.059 0.858,0.571 5.448,2.412 8.112,3.689 -5.128,-1.103 -9.521,-0.449 -11.129,2.361 1.84,0.621 3.909,1.447 8.542,2.49 -5.089,-0.985 -9.802,0.523 -11.294,3.579 1.836,0.553 7.528,0.467 10.443,0.632 -2.915,-0.165 -10.079,1.4 -11.614,5.646 0,0 5.74,-0.635 10.913,-1.92 -7.279,1.869 -10.283,4.678 -10.611,7.126 2.377,-0.871 5.414,-1.322 9.946,-3.115 -7.871,3.335 -10.962,6.983 -10.602,8.998 0.923,-0.41 3.728,-1.206 9.599,-4.269 -6.293,3.61 -9.217,8.933 -8.342,11.145 0,0 6.777,-4.104 9.321,-6.335 -6.646,7.073 -7.327,11.375 -5.567,13.751 0,0 6.337,-6.542 8.535,-9.559 2.197,-3.023 2.106,-4.341 0.907,-6.379 -4.143,-9.035 4.66,-26.833 11.616,-28.874 0.832,2.713 1.624,5.899 0.806,7.723 -0.988,2.21 -1.114,5.893 -0.379,7.471 0.737,1.58 0.245,3.695 0,4.421 -0.631,1.869 0.079,5.866 0.604,7.049 0.528,1.184 0.263,3.21 0.263,3.58 0,0.367 -0.5,2.288 -0.55,2.92 -0.054,0.631 -0.553,0.867 -0.87,1.314 -0.316,0.447 -0.027,0.974 0.475,0.817 0.498,-0.159 0.184,2.051 -0.238,2.787 -0.419,0.74 0.053,1.422 1.105,1.631 1.053,0.212 0.788,0.58 0.581,1.056 -0.212,0.471 0.998,0.629 1.788,0.736 0.788,0.105 1.261,0.684 0.841,1.155 -0.423,0.473 0.789,0.526 1.841,0.579 1.052,0.053 3,-0.106 2.316,0.315 -0.685,0.423 -1.788,0.213 -0.526,0.582 1.263,0.368 4.824,-0.598 5.349,-0.598 0.525,0 1.79,-0.352 2.174,-0.405 0.387,-0.053 1.789,-0.894 2.071,-0.788 0.279,0.105 -1.088,0.631 -0.456,0.772 0.629,0.141 1.331,-0.667 2.105,-0.913 0.77,-0.244 0.666,0.035 0,0.353 -0.669,0.313 0.174,0.49 1.857,-0.178 1.686,-0.666 2.562,-1.543 3.368,-1.859 0.807,-0.314 0.071,0.456 -0.279,0.527 -0.352,0.07 -0.669,0.351 -0.177,0.351 0.492,0 1.72,-0.526 1.754,-0.912 0.035,-0.386 0.385,-0.842 0.878,-0.842 0.491,0 1.123,0.281 1.788,0.385 0.668,0.106 0.491,-0.77 0.386,-1.016 -0.105,-0.244 0.877,0.034 1.121,0.316 0.248,0.28 0.879,0.527 1.123,0.315 0.246,-0.209 -0.771,-0.875 -1.052,-1.206 -0.279,-0.323 0.631,-0.269 1.052,-0.056 0.422,0.21 1.615,-0.213 1.439,-0.213 -0.175,0 -0.526,0.071 -1.088,-0.207 -0.56,-0.283 0.422,-1.019 1.509,-1.474 1.087,-0.458 1.894,-1.333 3.228,-4.596 1.333,-3.262 0.771,-5.402 0.981,-6.561 0.211,-1.156 -0.666,-1.138 -0.525,-1.997 0.079,-0.491 0,-0.842 0.28,-1.473 0.279,-0.633 0.422,-1.65 0.771,-2.387 0.352,-0.736 0.07,-1.542 0.352,-2.21 0.28,-0.666 -0.141,-1.194 -0.315,-1.015 -0.177,0.174 -0.563,0.701 -0.913,0.841 -0.352,0.14 -0.422,-0.423 -0.071,-1.37 0.353,-0.947 0.912,-2.314 1.439,-2.7 0.526,-0.385 0.876,-0.702 0.702,-0.842 -0.176,-0.138 -0.562,0 -1.089,0.281 -0.526,0.279 -0.56,0.247 -1.12,0.315 -0.563,0.07 -0.319,-0.561 -0.283,-1.052 0.035,-0.49 0.106,-1.543 0.704,-2.069 0.594,-0.527 0.909,-1.194 0.909,-1.194 0,0 -1.33,0.283 -1.964,0.597 -0.629,0.316 -1.786,1.09 -1.786,1.09 0,0 -0.564,-3.685 0.489,-9.052 0.085,-0.437 0.174,-0.843 0.263,-1.228 7.031,1.178 16.45,19.718 12.192,29.008 -1.199,2.038 -1.291,3.356 0.906,6.379 2.198,3.017 8.536,9.559 8.536,9.559 1.759,-2.376 1.079,-6.678 -5.565,-13.751 2.54,2.231 9.318,6.335 9.318,6.335 0.876,-2.212 -2.047,-7.535 -8.34,-11.145 5.87,3.063 8.675,3.859 9.598,4.269 0.361,-2.015 -2.731,-5.663 -10.603,-8.998 4.532,1.793 7.57,2.244 9.948,3.115 -0.327,-2.448 -3.333,-5.257 -10.614,-7.126 5.177,1.285 10.914,1.92 10.914,1.92 -1.535,-4.246 -8.697,-5.811 -11.614,-5.646 2.917,-0.165 8.606,-0.079 10.444,-0.632 -1.493,-3.056 -6.205,-4.564 -11.294,-3.579 4.633,-1.043 6.702,-1.869 8.54,-2.49 -1.604,-2.81 -5.999,-3.464 -11.128,-2.361 2.665,-1.277 7.253,-3.118 8.113,-3.689 -1.616,-1.978 -5.899,-3.016 -9.162,-2.059 -3.266,0.957 -1.868,-0.665 -0.676,-1.257 l -0.026,-0.012 c 1.473,-0.672 2.9,-1.506 4.235,-2.538 0.319,-0.247 0.611,-0.517 0.913,-0.779 l 0.015,0.025 c 2.028,-1.531 4.045,2.88 6.141,0.597 1.4,-1.529 2.67,-2.811 6.941,-4.66 -0.043,-0.078 -0.113,-0.168 -0.19,-0.265 m -94.78,5.151 c 4.833,2.65 8.356,3.972 10.311,4.753 1.949,0.784 4.157,-0.994 2.099,-2.58 -1.249,-0.964 -2.645,-1.918 -4.687,-3.432 -1.906,-1.413 -5.185,-0.986 -7.723,1.259 m -5.695,5.936 c 1.639,0.906 7.241,2.713 12.155,4.056 4.352,1.187 4.243,-2.588 1.871,-3.854 -2.031,-1.09 -3.819,-1.745 -5.378,-2.359 -4.028,-1.585 -7.127,0.432 -8.648,2.157 m -8.094,7.492 c 3.233,1.337 13.599,2.931 18.11,3.094 4.511,0.163 3.816,-3.513 1.065,-4.314 -3.129,-0.914 -5.123,-1.421 -8.046,-2.178 -4.342,-1.128 -8.081,0.337 -11.129,3.398 m -7.746,10.261 c 3.257,0.763 19.637,0.253 24.817,-0.55 4.707,-0.724 2.509,-3.944 0.277,-4.182 -1.656,-0.219 -5.811,-0.46 -11.101,-1.022 -6.074,-0.644 -11.242,1.638 -13.993,5.754 m -6.709,12.016 c 6.089,0.209 28.304,-5.776 32.171,-7.214 3.461,-1.284 1.881,-3.697 -0.234,-3.285 -2.527,0.375 -13.433,1.282 -18.058,1.731 -4.627,0.444 -9.831,2.136 -13.879,8.768 m -5.524,13.415 c 8.731,-1.869 33.014,-12.265 37.409,-14.793 3.809,-2.194 1.623,-4.554 -0.805,-3.538 -2.689,0.742 -16.207,5.079 -21.285,6.337 -5.083,1.258 -12.364,5.171 -15.319,11.994 m -3.653,13.375 c 10.649,-3.453 38.891,-19.039 42.075,-21.066 3.402,-2.164 2.135,-6.455 -1.271,-4.511 -3.212,1.575 -19.765,9.873 -27.479,12.497 -7.716,2.626 -11.322,6.664 -13.325,13.08 m -2.874,14.278 c 11.719,-3.55 41.906,-21.815 47.256,-26.459 4.64,-4.025 1.022,-7.636 -2.986,-5.179 -4.089,2.811 -23.095,13.289 -29.628,16.235 -6.526,2.95 -11.927,7.763 -14.642,15.403 m 32.788,22.909 h 7.424 c 5.098,0 7.29,-2.364 7.29,-7.199 v -3.964 c 0,-3.219 -0.985,-5.274 -3.18,-6.305 2.643,-1.028 3.671,-3.401 3.671,-6.706 V 4.895 c 0,-2.205 -0.584,-3.662 -1.661,-4.759 -2.023,-0.862 -4.112,-1.753 -6.219,-2.654 -2.361,1.443 -4.808,2.917 -7.325,4.406 z m 10.853,5.753 c 0.417,0 0.869,0.151 1.188,0.425 0.061,0.053 0.177,0.053 0.229,-0.008 l 0.691,-0.736 c 0.062,-0.063 0.054,-0.177 -0.009,-0.24 -0.602,-0.584 -1.363,-0.859 -2.152,-0.859 -1.772,0 -3.198,1.408 -3.198,3.18 0,1.772 1.426,3.197 3.198,3.197 0.886,0 1.541,-0.273 2.144,-0.823 0.079,-0.072 0.079,-0.177 0.008,-0.249 l -0.69,-0.717 c -0.062,-0.061 -0.16,-0.061 -0.221,0 -0.329,0.293 -0.763,0.452 -1.197,0.452 -1,0 -1.735,-0.832 -1.735,-1.825 0,-0.982 0.743,-1.797 1.744,-1.797 m 6.478,-0.027 c 0.098,0 0.168,-0.08 0.168,-0.169 v -0.965 c 0,-0.088 -0.07,-0.168 -0.168,-0.168 h -3.33 c -0.098,0 -0.169,0.08 -0.169,0.168 v 5.863 c 0,0.089 0.071,0.169 0.169,0.169 h 1.053 c 0.09,0 0.169,-0.08 0.169,-0.169 V 44.33 Z m 90.554,2.462 c 0.691,-0.275 1.789,-0.815 1.789,-2.018 0,-0.913 -0.788,-1.835 -2.09,-1.835 -1.151,0 -1.789,0.48 -1.993,0.682 -0.088,0.089 -0.115,0.125 -0.044,0.249 l 0.417,0.735 c 0.071,0.115 0.238,0.096 0.3,0.052 0.036,-0.016 0.674,-0.486 1.258,-0.486 0.354,0 0.611,0.221 0.611,0.53 0,0.373 -0.309,0.657 -0.912,0.895 -0.761,0.302 -1.718,0.895 -1.718,1.958 0,0.877 0.682,1.762 2.046,1.762 0.921,0 1.63,-0.469 1.895,-0.664 0.106,-0.062 0.088,-0.221 0.053,-0.283 l -0.451,-0.682 c -0.063,-0.097 -0.222,-0.177 -0.302,-0.115 -0.079,0.044 -0.726,0.53 -1.266,0.53 -0.319,0 -0.559,-0.211 -0.559,-0.451 0,-0.327 0.267,-0.575 0.966,-0.859 m -4.726,-3.596 v 5.863 c 0,0.089 0.08,0.169 0.169,0.169 h 1.062 c 0.089,0 0.169,-0.08 0.169,-0.169 v -5.863 c 0,-0.088 -0.08,-0.168 -0.169,-0.168 h -1.062 c -0.089,0 -0.169,0.08 -0.169,0.168 M -31.799,9.548 h 4.646 V 6.585 c 0,-2.957 0.989,-4.022 2.551,-4.022 1.565,0 2.55,1.065 2.55,4.022 0,8.522 -9.612,10.121 -9.612,21.963 0,6.627 2.458,10.414 7.242,10.414 4.786,0 7.248,-3.787 7.248,-10.414 v -1.301 h -4.653 v 1.712 c 0,2.961 -0.893,4.09 -2.461,4.09 -1.566,0 -2.459,-1.129 -2.459,-4.09 0,-8.525 9.613,-10.118 9.613,-21.956 0,-1.71 -0.186,-3.207 -0.516,-4.522 -2.579,-1.521 -5.103,-3.031 -7.531,-4.509 -1.635,0.507 -3.249,0.993 -4.825,1.434 -1.187,1.773 -1.793,4.34 -1.793,7.597 z m -3.897,34.401 -0.319,-0.708 c -0.044,-0.106 -0.142,-0.213 -0.319,-0.213 h -0.974 c -0.133,0 -0.204,0.116 -0.15,0.23 l 2.771,5.962 c 0.027,0.052 0.088,0.096 0.151,0.096 h 0.089 c 0.061,0 0.123,-0.044 0.15,-0.096 l 2.772,-5.962 c 0.053,-0.114 -0.017,-0.23 -0.151,-0.23 h -0.982 c -0.16,0 -0.231,0.053 -0.31,0.221 l -0.319,0.7 z m -5.452,3.976 c -0.098,0 -0.168,0.081 -0.168,0.169 v 0.965 c 0,0.089 0.07,0.169 0.168,0.169 h 3.933 c 0.096,0 0.167,-0.08 0.167,-0.169 v -0.965 c 0,-0.088 -0.071,-0.169 -0.167,-0.169 h -1.267 v -4.729 c 0,-0.088 -0.08,-0.168 -0.168,-0.168 h -1.063 c -0.088,0 -0.169,0.08 -0.169,0.168 v 4.729 z m -6.202,1.232 c 0,0.088 0.08,0.159 0.168,0.159 h 0.222 l 3.534,-3.401 h 0.008 v 3.144 c 0,0.089 0.071,0.169 0.169,0.169 h 1.063 c 0.088,0 0.168,-0.08 0.168,-0.169 V 43.1 c 0,-0.089 -0.08,-0.161 -0.168,-0.161 h -0.143 c -0.026,0 -0.096,0.027 -0.115,0.044 l -3.497,3.518 h -0.01 v -3.305 c 0,-0.088 -0.071,-0.168 -0.168,-0.168 h -1.054 c -0.088,0 -0.168,0.08 -0.168,0.168 z m -0.697,-36.862 h 4.651 V 9.608 c 0,-2.682 0.981,-3.647 2.546,-3.647 1.568,0 2.55,0.965 2.55,3.647 0,7.726 -9.612,9.175 -9.612,19.912 0,6.009 2.458,9.442 7.243,9.442 4.784,0 7.242,-3.433 7.242,-9.442 v -1.179 h -4.65 v 1.552 c 0,2.685 -0.896,3.708 -2.459,3.708 -1.567,0 -2.461,-1.023 -2.461,-3.708 0,-7.73 9.615,-9.174 9.615,-19.907 0,-4.312 -1.288,-7.296 -3.799,-8.638 -3.061,0.693 -6.066,1.271 -9.075,1.752 -1.186,1.607 -1.791,3.934 -1.791,6.886 z m -0.971,30.733 c -0.159,0 -0.23,0.053 -0.309,0.221 l -0.319,0.7 h -2.41 l -0.318,-0.708 c -0.045,-0.106 -0.142,-0.213 -0.319,-0.213 h -0.975 c -0.132,0 -0.203,0.116 -0.15,0.23 l 2.772,5.962 c 0.026,0.052 0.088,0.096 0.151,0.096 h 0.088 c 0.062,0 0.124,-0.044 0.151,-0.096 l 2.772,-5.962 c 0.054,-0.114 -0.017,-0.23 -0.151,-0.23 z m -10.674,6.129 c 0,0.088 0.079,0.159 0.168,0.159 h 0.222 l 3.534,-3.401 h 0.008 v 3.144 c 0,0.089 0.071,0.169 0.168,0.169 h 1.063 c 0.089,0 0.169,-0.08 0.169,-0.169 V 43.1 c 0,-0.089 -0.08,-0.161 -0.169,-0.161 h -0.142 c -0.027,0 -0.097,0.027 -0.115,0.044 l -3.498,3.518 h -0.009 v -3.305 c 0,-0.088 -0.071,-0.168 -0.169,-0.168 h -1.053 c -0.089,0 -0.169,0.08 -0.169,0.168 z m 5.954,-45.081 -0.835,5.586 h -6.035 l -0.738,-4.921 c -1.471,0.098 -2.964,0.181 -4.483,0.251 l 4.864,33.612 h 7.198 l 5.072,-35.167 c -1.672,0.24 -3.35,0.453 -5.043,0.639 m -46.758,38.952 h -2.162 c -0.088,0 -0.159,0.08 -0.159,0.168 v 5.863 c 0,0.089 0.071,0.169 0.159,0.169 h 2.162 c 1.709,0 3.109,-1.391 3.109,-3.09 0,-1.72 -1.4,-3.11 -3.109,-3.11 m 33.176,5.943 c -0.072,0.116 0,0.257 0.141,0.257 h 1.152 c 0.071,0 0.115,-0.044 0.141,-0.08 l 1.232,-1.816 1.23,1.816 c 0.027,0.036 0.063,0.08 0.142,0.08 h 1.151 c 0.142,0 0.213,-0.141 0.142,-0.257 l -1.983,-2.95 v -2.825 c 0,-0.088 -0.08,-0.168 -0.169,-0.168 h -1.053 c -0.098,0 -0.169,0.08 -0.169,0.168 v 2.817 z m -0.102,-4.234 c 0,-0.991 -0.876,-1.709 -1.931,-1.709 h -2.196 c -0.098,0 -0.169,0.08 -0.169,0.168 v 5.863 c 0,0.089 0.071,0.169 0.169,0.169 h 2.063 c 1.046,0 1.905,-0.718 1.905,-1.647 0,-0.682 -0.611,-1.178 -1.028,-1.399 0.47,-0.196 1.187,-0.63 1.187,-1.445 m -8.841,-6.133 V 24.965 l 6.441,13.639 h 4.919 l -6.842,-13.951 5.246,-16.62 -0.482,-2.99 c -1.096,0.046 -2.206,0.085 -3.331,0.118 l -4.43,14.624 -1.521,-2.866 V 5.286 c -1.6,0.021 -3.238,0.034 -4.917,0.04 v 33.278 z m 1.337,5.753 c 0.256,0 0.523,0.035 0.788,0.142 v 0.513 h -0.557 c -0.098,0 -0.169,0.071 -0.169,0.16 v 0.877 c 0,0.097 0.071,0.168 0.169,0.168 h 1.779 c 0.089,0 0.16,-0.079 0.16,-0.168 l 0.009,-2.384 c 0,-0.044 -0.036,-0.114 -0.071,-0.142 0,0 -0.912,-0.575 -2.196,-0.575 -1.764,0 -3.18,1.399 -3.18,3.171 0,1.772 1.416,3.189 3.18,3.189 0.743,0 1.558,-0.311 2.16,-0.833 0.08,-0.062 0.089,-0.168 0.019,-0.239 l -0.701,-0.743 c -0.07,-0.063 -0.168,-0.063 -0.239,-0.01 -0.336,0.31 -0.726,0.426 -1.16,0.426 -0.965,0 -1.745,-0.816 -1.745,-1.79 0,-0.966 0.788,-1.762 1.754,-1.762 m -6.602,0 c 0.638,0 1.108,0.496 1.108,1.115 v 3.587 c 0,0.089 0.07,0.169 0.168,0.169 h 1.09 c 0.088,0 0.168,-0.08 0.168,-0.169 v -3.657 c 0,-1.347 -1.133,-2.463 -2.534,-2.463 -1.389,0 -2.515,1.116 -2.515,2.463 v 3.657 c 0,0.089 0.08,0.169 0.169,0.169 h 1.089 c 0.098,0 0.168,-0.08 0.168,-0.169 v -3.587 c 0,-0.619 0.461,-1.115 1.089,-1.115 m -3.528,-1.072 c 0.063,-0.115 0,-0.257 -0.15,-0.257 h -1.178 c -0.071,0 -0.124,0.044 -0.142,0.08 l -1.177,2.348 h -0.612 v -2.26 c 0,-0.088 -0.079,-0.168 -0.167,-0.168 h -1.055 c -0.098,0 -0.169,0.08 -0.169,0.168 v 5.863 c 0,0.089 0.071,0.169 0.169,0.169 h 2.648 c 1.063,0 1.931,-0.859 1.931,-1.912 0,-0.815 -0.54,-1.472 -1.31,-1.781 z m -9.979,-4.681 h 7.199 l 4.85,-33.275 c -1.75,0 -3.4,-0.009 -4.966,-0.029 l -0.687,4.599 h -6.037 l -0.721,-4.82 c -1.592,-0.081 -3.105,-0.185 -4.565,-0.318 z m 1.945,8.224 c 0.089,0 0.168,-0.08 0.168,-0.169 v -0.965 c 0,-0.098 -0.079,-0.169 -0.168,-0.169 h -2.02 V 44.33 h 2.454 c 0.098,0 0.169,-0.08 0.169,-0.169 v -0.965 c 0,-0.088 -0.071,-0.168 -0.169,-0.168 h -3.666 c -0.098,0 -0.169,0.08 -0.169,0.168 v 5.863 c 0,0.089 0.071,0.169 0.169,0.169 h 3.666 c 0.098,0 0.169,-0.08 0.169,-0.169 v -0.965 c 0,-0.088 -0.071,-0.169 -0.169,-0.169 h -2.454 v -1.097 z m -12.448,-2.091 c 0,-0.991 -0.876,-1.709 -1.931,-1.709 h -2.196 c -0.098,0 -0.169,0.08 -0.169,0.168 v 5.863 c 0,0.089 0.071,0.169 0.169,0.169 h 2.064 c 1.045,0 1.904,-0.718 1.904,-1.647 0,-0.682 -0.611,-1.178 -1.028,-1.399 0.471,-0.196 1.187,-0.63 1.187,-1.445 m -8.071,-0.38 c 0.637,0 1.108,0.496 1.108,1.115 v 3.587 c 0,0.089 0.069,0.169 0.167,0.169 h 1.09 c 0.088,0 0.168,-0.08 0.168,-0.169 v -3.657 c 0,-1.347 -1.133,-2.463 -2.533,-2.463 -1.39,0 -2.516,1.116 -2.516,2.463 v 3.657 c 0,0.089 0.081,0.169 0.169,0.169 h 1.089 c 0.098,0 0.168,-0.08 0.168,-0.169 v -3.587 c 0,-0.619 0.461,-1.115 1.09,-1.115 m 3.586,-28.579 h -1.697 V 2.641 c -1.582,-0.39 -3.209,-0.834 -4.919,-1.339 v 37.302 h 7.42 c 5.099,0 7.29,-2.364 7.29,-7.199 v -6.73 c 0,-3.22 -1.028,-5.319 -3.219,-6.346 2.458,-1.032 3.261,-4.35 3.261,-7.612 V 5.885 c 0,-0.516 0.008,-0.983 0.034,-1.423 -1.653,-0.201 -3.261,-0.446 -4.868,-0.742 -0.051,0.513 -0.081,1.198 -0.081,2.212 v 4.918 c 0,2.906 -0.986,4.928 -3.221,4.928 m 56.72,-32.116 c -1.056,1.947 -5.006,5.455 -11.365,7.724 -6.684,2.384 -15.169,4.814 -24.092,4.394 -8.538,-0.403 -13.167,-3.98 -12.404,-8.451 0.542,-3.174 2.617,-4.921 3.482,-5.525 0.142,-0.749 0.225,-1.661 -0.395,-2.123 -5.876,4.21 -5.804,10.237 -4.02,13.156 2.383,3.897 7.15,8.68 20.645,7.703 13.651,-0.987 24.049,-6.559 28.951,-13.129 2.578,-3.459 1.704,-5.631 0.284,-6.925 -1.759,-1.603 -3.371,-0.869 -3.371,-0.869 1.858,0.683 3.37,2.047 2.285,4.045 m -77.326,74.407 c 29.571,10.954 80.541,10.954 110.112,0 1.358,-5.928 2.5,-9.159 3.454,-15.489 h -3.779 c -1.034,4.993 -1.686,7.452 -2.798,12.366 -28.129,10.025 -75.351,9.887 -103.703,0.164 -1.365,-4.77 -1.891,-7.511 -3.006,-12.53 h -3.78 c 0.962,6.323 2.136,9.567 3.5,15.489 M 18.629,19.228 c -0.308,0.326 -0.772,0.446 -1.198,0.317 l -3.32,-1.004 c -4.213,-1.278 -10.54,-4.28 -17.269,-7.874 -1.365,19.931 -4.949,37.643 -9.634,54.248 -17.026,5.26 -39.783,10.519 -62.805,10.519 -27.114,0 -46.029,-4.183 -62.757,-10.355 -4.67,-16.836 -8.33,-34.685 -9.667,-54.856 -7.038,3.79 -13.713,6.99 -18.098,8.318 l -3.32,1.004 c -0.427,0.129 -0.89,0.009 -1.198,-0.317 -0.311,-0.322 -0.41,-0.791 -0.26,-1.212 l 1.162,-3.267 c 1.435,-4.038 3.615,-7.544 6.51,-10.489 l -3.181,1.03 c -0.421,0.139 -0.884,0.028 -1.198,-0.284 -0.316,-0.312 -0.429,-0.772 -0.298,-1.194 l 1.006,-3.223 c 1.24,-3.97 3.073,-7.083 5.686,-9.543 l -1.942,0.416 c -0.43,0.094 -0.881,-0.063 -1.162,-0.406 -0.282,-0.343 -0.348,-0.815 -0.171,-1.22 l 1.332,-3.08 c 1.817,-4.2 4.884,-7.172 7.755,-9.187 l -2.62,-0.089 c -0.421,-0.015 -0.801,-0.252 -1.002,-0.621 -0.199,-0.372 -0.187,-0.82 0.032,-1.181 l 1.584,-2.595 c 2.151,-3.522 4.747,-6.099 7.863,-7.793 l -1.8,-0.424 c -0.377,-0.089 -0.687,-0.356 -0.83,-0.72 -0.142,-0.359 -0.099,-0.765 0.117,-1.088 l 1.41,-2.109 c 1.956,-2.928 4.877,-5.064 8.354,-6.193 l -1.714,-0.71 c -0.367,-0.149 -0.632,-0.471 -0.71,-0.859 -0.078,-0.387 0.044,-0.788 0.32,-1.069 l 1.813,-1.822 c 1.633,-1.642 3.386,-2.838 5.242,-3.588 12.279,-27.744 33.867,-46.177 61.602,-58.467 h 0.328 c 27.898,12.365 49.582,30.941 61.82,58.96 1.46,0.742 2.848,1.776 4.16,3.095 l 1.813,1.822 c 0.278,0.281 0.398,0.682 0.322,1.069 -0.078,0.388 -0.345,0.71 -0.711,0.859 l -1.714,0.71 c 3.477,1.129 6.399,3.265 8.354,6.193 l 1.41,2.109 c 0.215,0.323 0.258,0.729 0.119,1.088 -0.144,0.364 -0.454,0.631 -0.832,0.72 l -1.8,0.424 c 3.117,1.694 5.712,4.271 7.862,7.793 l 1.584,2.595 c 0.221,0.361 0.233,0.809 0.034,1.181 -0.2,0.369 -0.581,0.606 -1.003,0.621 l -2.617,0.089 c 2.87,2.015 5.935,4.987 7.753,9.187 l 1.331,3.08 c 0.177,0.405 0.111,0.877 -0.172,1.22 -0.279,0.343 -0.729,0.5 -1.161,0.406 L 9.2,-8.954 c 2.615,2.46 4.448,5.573 5.688,9.543 l 1.006,3.223 c 0.13,0.422 0.017,0.882 -0.298,1.194 -0.314,0.312 -0.777,0.423 -1.197,0.284 L 11.217,4.26 c 2.896,2.945 5.073,6.451 6.509,10.489 l 1.161,3.267 c 0.15,0.421 0.05,0.89 -0.258,1.212"
             style="fill:#e42080;fill-opacity:1;fill-rule:nonzero;stroke:none"
             id="path90"
             inkscape:connector-curvature="0" /></g><g
           id="g92"
           transform="translate(49.2216,119.805)"><path
             d="m 0,0 v 8.417 c 0,2.905 -0.938,3.803 -3.175,3.803 H -5.366 V -4.795 c 0,0 0.866,0.247 2.819,1.187 C -0.724,-2.731 0,-2.33 0,0"
             style="fill:#e42080;fill-opacity:1;fill-rule:nonzero;stroke:none"
             id="path94"
             inkscape:connector-curvature="0" /></g></g></g></g></svg>