<?xml version="1.0" encoding="UTF-8" standalone="no"?>
<!-- Created with Inkscape (http://www.inkscape.org/) -->

<svg
   xmlns:dc="http://purl.org/dc/elements/1.1/"
   xmlns:cc="http://creativecommons.org/ns#"
   xmlns:rdf="http://www.w3.org/1999/02/22-rdf-syntax-ns#"
   xmlns:svg="http://www.w3.org/2000/svg"
   xmlns="http://www.w3.org/2000/svg"
   xmlns:sodipodi="http://sodipodi.sourceforge.net/DTD/sodipodi-0.dtd"
   xmlns:inkscape="http://www.inkscape.org/namespaces/inkscape"
   width="80"
   height="80"
   viewBox="0 0 21.166666 21.166667"
   version="1.1"
   id="svg8"
   inkscape:version="0.92.4 (5da689c313, 2019-01-14)"
   sodipodi:docname="les-sables.svg">
  <defs
     id="defs2" />
  <sodipodi:namedview
     id="base"
     pagecolor="#ffffff"
     bordercolor="#666666"
     borderopacity="1.0"
     inkscape:pageopacity="0.0"
     inkscape:pageshadow="2"
     inkscape:zoom="7.2478445"
     inkscape:cx="37.977525"
     inkscape:cy="30.135481"
     inkscape:document-units="px"
     inkscape:current-layer="layer2"
     showgrid="false"
     units="px"
     inkscape:window-width="1920"
     inkscape:window-height="1017"
     inkscape:window-x="-8"
     inkscape:window-y="-8"
     inkscape:window-maximized="1" />
  <metadata
     id="metadata5">
    <rdf:RDF>
      <cc:Work
         rdf:about="">
        <dc:format>image/svg+xml</dc:format>
        <dc:type
           rdf:resource="http://purl.org/dc/dcmitype/StillImage" />
        <dc:title></dc:title>
      </cc:Work>
    </rdf:RDF>
  </metadata>
  <g
     inkscape:groupmode="layer"
     id="layer2"
     inkscape:label="logo"
     style="display:inline"
     transform="translate(0,-275.83332)">
    <path
       style="display:inline;fill:#ffffff;fill-opacity:1;stroke:#196b9f;stroke-width:0.19685489;stroke-linecap:butt;stroke-linejoin:miter;stroke-miterlimit:4;stroke-dasharray:none;stroke-opacity:1"
       d="m 5.8915001,277.25467 -2.7528961,5.57396 7.430257,12.65431 7.456916,-12.65431 -2.77981,-5.57396 z m 0.4008882,0.53468 8.6062617,0.0533 0.98889,2.11158 -10.6642708,0.0536 z m -1.1493484,7.40153 H 15.967769 l -5.398908,9.24961 z"
       id="path855"
       inkscape:connector-curvature="0" />
    <path
       style="fill:#196b9f;fill-opacity:1;stroke:none;stroke-width:0.13123658px;stroke-linecap:butt;stroke-linejoin:miter;stroke-opacity:1"
       d="m 5.0361546,280.59761 -1.2026625,2.23102 1.0691181,1.77169 H 16.26177 l 1.095776,-1.77169 -1.202662,-2.23102 z m 9.4472544,0.59748 c 0.02195,0 0.03937,0.0147 0.05255,0.0446 0.03805,0.0909 0.126782,0.25519 0.265806,0.49291 0.0044,0.007 0.0064,0.0137 0.0064,0.0187 0,0.0212 -0.01313,0.0318 -0.03947,0.0318 -0.01171,0 -0.03141,-0.002 -0.05921,-0.006 -0.02781,-0.004 -0.04893,-0.006 -0.06357,-0.006 -0.105366,0 -0.197547,0.0207 -0.276571,0.0618 -0.09512,0.0473 -0.142771,0.11325 -0.142771,0.19788 0,0.0759 0.05279,0.16913 0.15815,0.2799 0.185853,0.19914 0.28317,0.30378 0.291951,0.31374 0.103901,0.1369 0.155842,0.27317 0.155843,0.40883 0,0.25266 -0.125269,0.46905 -0.375511,0.64952 -0.219511,0.15931 -0.48663,0.26095 -0.801262,0.30451 -0.01171,10e-4 -0.02113,0.002 -0.02845,0.002 -0.03366,0 -0.108416,-0.0872 -0.224026,-0.26145 -0.115608,-0.17549 -0.173272,-0.28259 -0.173272,-0.32117 0,-0.0137 0.01085,-0.0224 0.03281,-0.0261 0.212193,-0.0411 0.352869,-0.0757 0.421649,-0.10432 0.152193,-0.0647 0.228126,-0.16065 0.228126,-0.28759 0,-0.0809 -0.04967,-0.17111 -0.14918,-0.27068 -0.172682,-0.16927 -0.266295,-0.26328 -0.280928,-0.28195 -0.100976,-0.12944 -0.151486,-0.27252 -0.151486,-0.42934 0,-0.22776 0.123581,-0.4169 0.370897,-0.5675 0.201952,-0.12446 0.449957,-0.20539 0.744102,-0.24273 0.0161,-0.001 0.02864,-0.002 0.03742,-0.002 z m -3.810737,0.0167 c 0.474146,0 0.845732,0.12399 1.114999,0.37167 0.02927,0.0274 0.04409,0.0516 0.04409,0.0728 0,0.0237 -0.05136,0.1114 -0.153793,0.26324 -0.100976,0.15184 -0.164619,0.23688 -0.19096,0.25555 -0.01171,0.01 -0.02627,0.0151 -0.04383,0.0151 -0.0073,0 -0.04385,-0.0251 -0.109705,-0.0748 -0.07902,-0.0597 -0.156642,-0.10634 -0.232741,-0.13995 -0.115609,-0.0498 -0.235741,-0.0746 -0.360132,-0.0746 -0.215121,0 -0.38694,0.0684 -0.515719,0.20531 -0.118537,0.12696 -0.177888,0.28366 -0.177888,0.47035 0,0.18918 0.05935,0.34805 0.177888,0.47625 0.128779,0.13939 0.300598,0.2089 0.515719,0.2089 0.127317,0 0.248037,-0.0235 0.362182,-0.0707 0.07463,-0.0311 0.150823,-0.0747 0.228384,-0.13072 0.06439,-0.0473 0.100338,-0.071 0.107654,-0.071 0.01463,0 0.0292,0.007 0.04383,0.0205 0.02341,0.0224 0.08706,0.10033 0.190959,0.2335 0.106829,0.13815 0.160203,0.21393 0.160203,0.22762 0,0.0199 -0.01541,0.0461 -0.04614,0.0784 -0.269267,0.27256 -0.626878,0.40883 -1.073219,0.40883 -0.456584,0 -0.8269972,-0.13245 -1.110899,-0.39756 -0.2765848,-0.25638 -0.4147282,-0.58013 -0.4147282,-0.97094 0,-0.37836 0.1352824,-0.6994 0.4060142,-0.96326 0.2824378,-0.2763 0.641737,-0.41447 1.077833,-0.41447 z m -4.140111,0.0505 c 0.333658,0 0.6059108,0.064 0.8166414,0.19225 0.2385367,0.14437 0.357825,0.35285 0.357825,0.62542 0,0.18171 -0.03081,0.3267 -0.09228,0.43498 -0.06146,0.10828 -0.1747745,0.21347 -0.340139,0.31553 -0.03366,0.0199 -0.05049,0.0385 -0.05049,0.0559 0,-10e-4 0.08932,0.15517 0.2678558,0.46881 0.1785355,0.31364 0.2678568,0.48643 0.2678568,0.51879 0,0.009 -0.01482,0.015 -0.04409,0.0187 -0.05561,0.007 -0.1951846,0.0113 -0.4190863,0.0113 -0.1917075,0 -0.3221109,-0.004 -0.3908921,-0.0113 -0.0322,-0.004 -0.05046,-0.007 -0.05485,-0.009 -0.0088,-0.004 -0.01905,-0.0163 -0.03076,-0.0374 -0.02195,-0.0485 -0.05419,-0.12075 -0.09663,-0.21659 -0.05707,-0.12446 -0.1461355,-0.30788 -0.2675998,-0.55058 -0.02634,-0.0485 -0.08712,-0.0755 -0.1822446,-0.0805 0.0439,0.002 -0.03144,0.004 -0.2260756,0.004 -0.02195,0 -0.03307,0.0316 -0.03307,0.0951 0,0.0846 0.0088,0.21108 0.0264,0.3791 0.01902,0.16802 0.02845,0.29421 0.02845,0.37885 0,0.0212 -0.0066,0.0337 -0.01974,0.0374 l -0.06126,0.004 c -0.08634,0.005 -0.2210376,0.007 -0.4039642,0.007 -0.2092676,0 -0.335122,-0.004 -0.3775621,-0.0113 -0.04244,-0.007 -0.06382,-0.0268 -0.06382,-0.0579 0,-0.13691 0.0074,-0.34349 0.02204,-0.61979 0.0161,-0.2763 0.0241,-0.48343 0.0241,-0.62158 0,-0.52647 -0.01372,-0.93716 -0.04153,-1.23213 l -0.0023,-0.0261 c -0.0015,-0.0212 0.02135,-0.0356 0.06818,-0.0431 0.04829,-0.007 0.2720528,-0.0148 0.671564,-0.0223 0.2707308,-0.005 0.4864934,-0.007 0.6474679,-0.007 z m -0.2963079,0.55443 c -0.1390234,0 -0.2129386,0.018 -0.2217176,0.0541 -0.0088,0.0423 -0.01307,0.1644 -0.01307,0.36602 0,0.0286 7.88e-4,0.0709 0.0023,0.12688 0.0015,0.056 0.002,0.0977 0.002,0.12509 0,0.006 0.0234,0.0125 0.07023,0.0187 0.08927,0.0112 0.1828795,0.0167 0.2809278,0.0167 0.3204869,0 0.4808614,-0.1082 0.4808614,-0.32476 0,-0.15184 -0.05851,-0.25704 -0.1755805,-0.31553 -0.09073,-0.0448 -0.2328377,-0.0672 -0.4260083,-0.0672 z m 2.1974475,1.2229 c 0.1434134,0 0.2647208,0.0433 0.364233,0.13047 0.1009763,0.0871 0.1514865,0.19177 0.1514865,0.31374 0,0.12321 -0.05051,0.22841 -0.1514865,0.31553 -0.09951,0.0871 -0.2208196,0.13072 -0.364233,0.13072 -0.1434144,0 -0.2649778,-0.0436 -0.3644901,-0.13072 -0.09951,-0.0884 -0.1491794,-0.19356 -0.1491794,-0.31553 0,-0.12197 0.04967,-0.22662 0.1491794,-0.31374 0.09951,-0.0871 0.2210757,-0.13047 0.3644901,-0.13047 z m 4.0652644,0 c 0.143414,0 0.264978,0.0433 0.36449,0.13047 0.100975,0.0871 0.151486,0.19177 0.151486,0.31374 0,0.12321 -0.05051,0.22841 -0.151486,0.31553 -0.09951,0.0871 -0.221076,0.13072 -0.36449,0.13072 -0.143414,0 -0.264721,-0.0436 -0.364234,-0.13072 -0.09951,-0.0884 -0.149435,-0.19356 -0.149435,-0.31553 0,-0.12197 0.04992,-0.22662 0.149435,-0.31374 0.09951,-0.0871 0.22082,-0.13047 0.364234,-0.13047 z m 3.125845,0 c 0.143414,0 0.264978,0.0433 0.36449,0.13047 0.100975,0.0871 0.151485,0.19177 0.151485,0.31374 0,0.12321 -0.05051,0.22841 -0.151485,0.31553 -0.09951,0.0871 -0.221076,0.13072 -0.36449,0.13072 -0.143415,0 -0.264721,-0.0436 -0.364234,-0.13072 -0.09951,-0.0884 -0.149435,-0.19356 -0.149435,-0.31553 0,-0.12197 0.04992,-0.22662 0.149435,-0.31374 0.09951,-0.0871 0.220819,-0.13047 0.364234,-0.13047 z"
       id="path850"
       inkscape:connector-curvature="0" />
    <path
       id="path864"
       style="display:inline;fill:none;stroke:#196b9f;stroke-width:0.19685489;stroke-linecap:butt;stroke-linejoin:miter;stroke-miterlimit:4;stroke-dasharray:none;stroke-opacity:1"
       d="m 10.595519,286.50248 c -1.2607638,0.0345 -0.9327638,5.64601 0.02666,5.586 0.991789,-0.062 1.049604,-5.6079 -0.02666,-5.586 z m 1.364192,2.76627 a 1.3508467,2.7673955 0 0 1 -1.350845,2.7674 1.3508467,2.7673955 0 0 1 -1.350847,-2.7674 1.3508467,2.7673955 0 0 1 1.350847,-2.76739 1.3508467,2.7673955 0 0 1 1.350845,2.76739 z"
       inkscape:connector-curvature="0" />
  </g>
</svg>
