<?xml version="1.0" encoding="UTF-8" standalone="no"?>
<!-- Created with Inkscape (http://www.inkscape.org/) -->

<svg
   xmlns:dc="http://purl.org/dc/elements/1.1/"
   xmlns:cc="http://creativecommons.org/ns#"
   xmlns:rdf="http://www.w3.org/1999/02/22-rdf-syntax-ns#"
   xmlns:svg="http://www.w3.org/2000/svg"
   xmlns="http://www.w3.org/2000/svg"
   xmlns:sodipodi="http://sodipodi.sourceforge.net/DTD/sodipodi-0.dtd"
   xmlns:inkscape="http://www.inkscape.org/namespaces/inkscape"
   width="80"
   height="80"
   viewBox="0 0 21.166666 21.166667"
   version="1.1"
   id="svg835"
   inkscape:version="0.92.4 (5da689c313, 2019-01-14)"
   sodipodi:docname="rez-capes.svg">
  <defs
     id="defs829" />
  <sodipodi:namedview
     id="base"
     pagecolor="#ffffff"
     bordercolor="#666666"
     borderopacity="1.0"
     inkscape:pageopacity="0.0"
     inkscape:pageshadow="2"
     inkscape:zoom="3.28125"
     inkscape:cx="62.7723"
     inkscape:cy="52.237498"
     inkscape:document-units="mm"
     inkscape:current-layer="layer2"
     showgrid="false"
     inkscape:window-width="1366"
     inkscape:window-height="705"
     inkscape:window-x="-8"
     inkscape:window-y="-8"
     inkscape:window-maximized="1"
     inkscape:snap-global="false"
     units="px" />
  <metadata
     id="metadata832">
    <rdf:RDF>
      <cc:Work
         rdf:about="">
        <dc:format>image/svg+xml</dc:format>
        <dc:type
           rdf:resource="http://purl.org/dc/dcmitype/StillImage" />
        <dc:title></dc:title>
      </cc:Work>
    </rdf:RDF>
  </metadata>
  <g
     inkscape:groupmode="layer"
     id="layer2"
     inkscape:label="logo"
     style="opacity:1"
     transform="translate(0,-275.83332)">
    <g
       id="g1446"
       transform="matrix(0.21875015,0,0,0.21874904,-6.5488972,276.43383)">
      <g
         id="g1438">
        <path
           inkscape:connector-curvature="0"
           id="path1397"
           d="m 62.727016,61.795328 1.598395,0.82656 -0.14318,10.69641 -1.455208,0.1674 z m 27.428471,11.47887 c -0.097,-0.097 -0.17639,-1.46623 -0.17639,-3.04271 v -2.86632 h 2.09746 c 1.95079,0 2.13582,0.0487 2.64584,0.69714 0.70005,0.88997 0.69518,1.69069 -0.0157,2.59449 -0.661774,0.69613 -0.532357,0.76012 0,1.48018 0.76024,1.02828 0.71089,1.31361 -0.2272,1.31361 -0.61318,0 -0.92588,-0.20773 -1.38906,-0.92277 -0.80405,-1.24123 -1.5238,-1.24278 -1.5238,-0.003 0,0.79375 -0.0882,0.92604 -0.61736,0.92604 -0.33955,0 -0.69673,-0.0794 -0.79375,-0.17639 z m 3.44234,-3.68677 c 0.19997,-0.52111 -0.33704,-0.88991 -1.30362,-0.89529 -0.60081,-0.003 -0.72761,0.11122 -0.72761,0.65741 0,0.58068 0.1141,0.66145 0.93435,0.66145 0.61263,0 0.99031,-0.14584 1.09688,-0.42357 z m 1.37013,-8.30768 c -30.836295,121.966132 -15.418147,60.983072 0,0 z m -3.13677,2.24896 v -3.04271 h 0.79375 0.79375 v 3.04271 3.04271 h -0.79375 -0.79375 z m -1.85209,-6.6426 v -3.07072 l 2.14259,0.0973 c 1.89647,0.0861 2.20324,0.17222 2.67071,0.74951 0.62108,0.767 0.50284,2.31225 -0.21724,2.83878 -0.40655,0.29728 -0.38491,0.41193 0.2623,1.38993 l 0.7054,1.06593 h -1.02042 c -0.89482,0 -1.08181,-0.11399 -1.51913,-0.92605 -0.614897,-1.11053 -1.430264,-1.02379 -1.43671,0 0,0.85255 -0.063,0.92605 -0.79375,0.92605 -1.515126,0.22808 -0.79375,-1.94551 -0.79375,-3.07073 z m 4.51593,2.03775 c -30.521008,123.536732 -15.260504,61.768362 0,0 z m -3.09143,-2.25886 c -28.460055,125.042632 -14.230027,62.521322 0,0 z m 2.00544,-0.26845 c 0.47022,-0.56658 0.10139,-0.93763 -0.93204,-0.93763 -0.79473,0 -0.91043,0.084 -0.91043,0.66146 0,0.55231 0.12563,0.66146 0.76136,0.66146 0.41874,0 0.90524,-0.17338 1.08111,-0.38529 z M 62.727016,14.183919 h 1.599081 l -0.03598,19.579169 H 62.727016 Z M 91.831,31.928058 V 14.184 l 1.588,-8.1e-5 V 32.451 Z"
           style="fill:#ef3e2e;fill-opacity:1;stroke-width:0.26458332"
           sodipodi:nodetypes="ccccccscscccscssccccsscccccccccccccccccscsccccccccssssscccccccccc" />
        <path
           inkscape:connector-curvature="0"
           id="path1395"
           d="m 71.042675,62.821309 c -2.44352,-0.35212 -6.14434,-1.48872 -7.91038,-2.42944 -2.34699,-1.250166 -4.48997,-3.354676 -5.49515,-5.396486 -0.69216,-1.40598 -0.8684,-2.12495 -0.96309,-3.92903 -0.0637,-1.21448 -0.0389,-2.61851 0.0552,-3.12006 0.16579,-0.88372 0.21791,-0.91773 1.68601,-1.10025 2.50731,-0.31172 6.21554,-1.35278 8.37896,-2.35234 1.90489,-0.88012 4.79013,-2.75376 4.57375,-2.97015 -0.0531,-0.0531 -1.10045,0.32809 -2.32754,0.847 -1.22709,0.51891 -3.36216,1.25832 -4.74461,1.64314 -2.21393,0.61628 -3.00237,0.70044 -6.61458,0.70602 -3.20699,0.005 -4.492915,-0.10168 -5.898563,-0.48919 -0.988635,-0.27255 -1.762541,-0.52997 -1.719791,-0.57205 0.04275,-0.0421 1.488993,-0.27139 3.213874,-0.50959 3.22285,-0.44505 7.15266,-1.51814 7.47609,-2.04146 0.1235,-0.199845 -0.0224,-0.243795 -0.45246,-0.136245 -3.54464,0.886515 -8.392948,0.861525 -11.959072,-0.0617 -1.890009,-0.48927 -5.904576,-2.32613 -5.646952,-2.58376 0.06007,-0.0601 1.404706,0.0808 2.988071,0.31296 1.583365,0.23221 3.889039,0.38716 5.123719,0.34434 l 2.244873,-0.0778 -2.513542,-0.60063 c -4.636921,-1.10802 -8.540308,-3.12721 -11.231624,-5.81002 -1.323276,-1.3191 -3.320458,-4.26795 -3.320458,-4.90268 0,-0.0697 1.041796,0.3961 2.315104,1.03516 5.024161,2.52155 11.315139,4.5482 17.562611,5.65781 2.39579,0.42552 4.76546,0.61693 8.83919,0.71398 l 5.56587,0.1326 2.4115,-0.82799 c 3.43418,-1.17914 6.90475,-1.87284 10.30136,-2.05906 8.319984,-0.45615 16.477644,2.98562 19.031055,8.02932 0.70756,1.397665 0.77888,1.777095 0.76212,4.055475 -0.0183,2.48832 -0.57475,4.66911 -1.50306,5.89053 -0.48402,0.63686 -5.384621,1.56244 -8.400341,1.58659 -4.369684,0.035 -6.983854,-1.16228 -8.298634,-3.80067 -0.52713,-1.05781 -0.6972,-1.79806 -0.6972,-3.03463 0,-1.86115 0.39094,-2.97336 1.5636,-4.448515 1.03849,-1.30638 1.03283,-1.44848 -0.0224,-0.56058 -2.75103,2.314835 -3.69318,5.488325 -2.69729,9.085355 0.16636,0.6009 0.12191,0.59241 -1.699,-0.3246 -3.98546,-2.00704 -8.52592,-2.61963 -11.07409,-1.4941 -4.25755,1.88057 -5.35292,6.45431 -2.18429,9.12053 0.71532,0.6019 3.16565,2.003 3.50297,2.003 0.0589,0 0.16129,-0.93633 0.22754,-2.08074 0.15057,-2.60104 1.09365,-4.45243 3.01638,-5.92157 0.71323,-0.54497 1.3729,-0.99145 1.46594,-0.99218 0.093,-8e-4 0.10722,0.99146 0.0315,2.20487 -0.15295,2.45163 0.12741,3.69729 1.18525,5.26624 1.54239,2.2876 4.8888,3.485576 9.29895,3.328906 1.32727,-0.0471 2.41294,-0.008 2.4126,0.0859 -7.9e-4,0.2239 -3.39661,1.42663 -5.42456,1.92126 -3.75136,0.91498 -8.79439,1.18124 -12.43541,0.65656 z M 99.220809,45.387513 c 0.63569,-0.63569 0.67163,-1.26635 0.11728,-2.05779 -0.84542,-1.207 -2.49854,-0.55723 -2.49854,0.98207 0,0.63582 0.8787,1.60489 1.45521,1.60489 0.21828,0 0.63501,-0.23812 0.92605,-0.52917 z m 5.291661,-3.18703 c 0,-1.850715 -2.14304,-5.186035 -4.44697,-6.921035 l -1.509471,-1.13673 3.176661,-0.044 c 6.34904,-0.0879 12.5217,-1.97227 17.26571,-5.2708 0.90951,-0.63238 1.65363,-1.06447 1.65362,-0.96021 -3e-5,0.10427 -0.60956,1.14208 -1.35454,2.30625 -2.30492,3.60188 -5.98525,6.70717 -9.26522,7.81755 -1.87647,0.63525 -1.90961,0.85892 -0.0958,0.64692 l 1.5875,-0.18555 -0.66146,0.67293 c -0.69758,0.70966 -3.20213,2.193645 -5.17554,3.066585 -1.15812,0.51229 -1.17446,0.5124 -1.17446,0.008 z"
           style="fill:#113451;fill-opacity:1;stroke-width:0.26458332"
           sodipodi:nodetypes="cccccsccsccccccccccccccsccsccscccccsccccssscccccccscccsssccccccccssccccc" />
        <path
           style="fill:#113451;fill-opacity:1;stroke-width:0.26458332"
           d="m 96.957525,73.006093 c -0.49463,-0.5265 -0.57529,-0.91821 -0.57529,-2.79374 0,-1.38687 0.0964,-2.12181 0.26458,-2.01785 0.14552,0.0899 0.26459,1.03101 0.26459,2.09127 0,1.53156 0.0994,2.01775 0.48385,2.36564 0.50558,0.45754 1.54127,0.57211 2.07928,0.23001 0.553505,-0.35195 0.911165,-1.72296 0.841545,-3.22589 -0.0372,-0.80357 0.0341,-1.46103 0.1585,-1.46103 0.1244,0 0.19886,0.95251 0.16548,2.11667 -0.0498,1.73476 -0.16123,2.22408 -0.61789,2.71198 -0.766925,0.81942 -2.286765,0.81097 -3.064645,-0.017 z m 6.135755,0.31747 c -0.80275,-0.40929 -1.28111,-1.44305 -1.24822,-2.69743 0.0512,-1.95204 2.05403,-3.10588 3.91744,-2.25686 0.37065,0.16888 0.67391,0.40701 0.67391,0.52916 0,0.31137 -0.728,0.27798 -0.92604,-0.0425 -0.0899,-0.14552 -0.55246,-0.26458 -1.02783,-0.26458 -1.47538,0 -2.55104,1.63249 -2.01122,3.05234 0.36269,0.95395 0.99808,1.42661 1.93196,1.43716 1.09282,0.0123 1.76854,-0.44291 1.76854,-1.19152 0,-0.56893 -0.11817,-0.65215 -0.92604,-0.65215 -0.50932,0 -0.92604,-0.11906 -0.92604,-0.26459 0,-0.14552 0.53578,-0.26458 1.19063,-0.26458 h 1.19062 v 1.02594 c 0,0.58933 -0.16896,1.16616 -0.39702,1.35543 -0.53696,0.44564 -2.51322,0.58976 -3.21069,0.23414 z m 4.66604,-2.48322 v -2.77812 h 1.3057 c 2.32331,0 3.35391,0.82578 2.65662,2.12868 -0.24113,0.45056 -0.21177,0.65903 0.149,1.05767 0.60838,0.67225 0.31254,1.78139 -0.56406,2.11467 -0.36921,0.14038 -1.31838,0.25523 -2.10928,0.25523 h -1.43798 z m 3.45698,1.97507 c 1.22098,-0.65345 -0.054,-1.93612 -1.78311,-1.79382 -0.96145,0.0791 -1.01654,0.13328 -1.09453,1.07552 l -0.0821,0.99218 h 1.22399 c 0.67319,0 1.45429,-0.12325 1.73576,-0.27388 z m -0.15591,-2.63136 c 0.8854,-0.73482 0.0235,-1.59267 -1.60017,-1.59267 -1.15157,0 -1.17173,0.0152 -1.17173,0.88194 0,0.48508 0.0697,0.9517 0.15499,1.03694 0.26569,0.2657 2.19322,0.0254 2.61691,-0.32621 z m 3.5781,2.35575 c 0,-0.83574 -0.23835,-1.41153 -1.05833,-2.55662 -0.58209,-0.81287 -1.05834,-1.57763 -1.05834,-1.69946 0,-0.50803 0.45179,-0.13189 1.32292,1.1014 0.50932,0.72107 0.98557,1.31157 1.05833,1.31222 0.0728,5.3e-4 0.52016,-0.59198 0.99423,-1.31697 0.47406,-0.72499 0.98007,-1.31816 1.12447,-1.31816 0.43883,0 0.30708,0.28982 -0.79578,1.75054 -0.87371,1.15722 -1.05833,1.61144 -1.05833,2.60373 0,0.6611 -0.11907,1.20198 -0.26459,1.20198 -0.14552,0 -0.26458,-0.4854 -0.26458,-1.07866 z m -19.843755,-8.31405 c 0,-1.52797 0.10186,-2.77813 0.22636,-2.77813 0.12449,0 0.98769,0.96928 1.91822,2.15396 l 1.69188,2.15396 0.0768,-2.15396 c 0.11449,-3.20911 0.58585,-2.64563 0.57745,0.69032 l -0.007,2.84427 -0.85273,-0.93961 c -0.46898,-0.51678 -1.3527,-1.52881 -1.96379,-2.24895 l -1.11109,-1.30936 -0.0134,2.18282 c -0.008,1.26988 -0.12405,2.1828 -0.27798,2.1828 -0.15959,0 -0.26458,-1.10243 -0.26458,-2.77812 z m 5.820825,0 v -2.77813 h 1.45105 c 1.21089,0 1.58461,0.12042 2.25814,0.72761 1.64036,1.47876 1.10208,3.96722 -0.98343,4.54635 -0.55328,0.15364 -1.39291,0.28001 -1.86585,0.28082 l -0.85991,0.001 z m 2.93494,1.83942 c 1.43447,-0.74181 1.66194,-2.17804 0.52501,-3.31498 -0.60187,-0.60187 -1.01263,-0.77339 -1.85208,-0.77339 h -1.07869 v 2.24895 2.24896 h 0.80689 c 0.44379,0 1.16328,-0.1843 1.59887,-0.40954 z m 2.88591,-1.8238 v -2.79375 h 1.52862 c 1.85561,0 2.70471,0.49616 2.70471,1.58045 0,0.51662 -0.22595,0.92126 -0.71224,1.2755 l -0.71224,0.51883 0.71224,0.84646 c 0.39173,0.46555 0.71224,0.95637 0.71224,1.09073 0,0.53725 -0.48226,0.1847 -1.29451,-0.94634 -0.68001,-0.9469 -1.01415,-1.19063 -1.63235,-1.19063 -0.72853,0 -0.77731,0.0654 -0.77731,1.04272 0,0.5735 -0.11906,1.11631 -0.26458,1.20624 -0.17001,0.10507 -0.26458,-0.8351 -0.26458,-2.63021 z m 3.54327,-0.74323 c 0.51456,-0.8202 -0.11359,-1.37867 -1.65229,-1.46903 l -1.36182,-0.08 v 1.08599 1.08598 l 1.36182,-0.08 c 0.94746,-0.0556 1.45019,-0.22084 1.65229,-0.54298 z m 1.92478,3.32934 c -0.097,-0.097 -0.17639,-1.34716 -0.17639,-2.77812 v -2.60174 h 1.98438 c 1.14653,0 1.98437,0.11172 1.98437,0.26459 0,0.14925 -0.74965,0.26458 -1.71979,0.26458 h -1.71979 v 0.92604 0.92604 h 1.5875 c 0.88194,0 1.5875,0.1176 1.5875,0.26459 0,0.14728 -0.71088,0.26458 -1.60347,0.26458 h -1.60347 l 0.0821,0.99219 0.0821,0.99219 1.65365,0.0788 c 0.9095,0.0433 1.65364,0.19215 1.65364,0.33073 0,0.28195 -3.51591,0.35201 -3.79236,0.0756 z m 6.1736,-2.33715 v -2.51353 h -0.92604 c -0.50932,0 -0.92604,-0.11907 -0.92604,-0.26459 0,-0.15434 0.88194,-0.26459 2.11667,-0.26459 1.23473,0 2.11667,0.11025 2.11667,0.26459 0,0.14553 -0.41672,0.26459 -0.92604,0.26459 h -0.92604 v 2.51353 c 0,1.49932 -0.10676,2.51355 -0.26459,2.51355 -0.15781,0 -0.26459,-1.01423 -0.26459,-2.51355 z m -21.695835,-7.01146 v -2.64582 h 2 c 1.265936,0 1.939965,0.0971 1.836465,0.26457 -0.0899,0.14553 -0.870865,0.26459 -1.735405,0.26459 h -1.57188 v 0.92604 0.92604 h 1.60311 c 1.00137,0 1.541735,0.0993 1.439596,0.26458 -0.0899,0.14552 -0.811336,0.26459 -1.603116,0.26459 h -1.43959 v 0.92604 0.92604 h 1.71979 c 0.970136,0 1.719785,0.11533 1.719785,0.26458 0,0.15287 -0.837845,0.26459 -1.984365,0.26459 h -1.98438 z m 4.762515,2.43517 c 0,-0.11586 0.71438,-1.14236 1.5875,-2.2811 0.87313,-1.13875 1.58757,-2.14527 1.58766,-2.23672 9e-5,-0.0915 -0.60676,-0.12427 -1.34856,-0.0729 -0.75883,0.0526 -1.47638,-0.0342 -1.64058,-0.19844 -0.21275,-0.21276 0.30045,-0.29186 1.89335,-0.29186 1.67629,0 2.13955,0.077 1.98921,0.33074 -0.1078,0.18189 -0.89408,1.25346 -1.7473,2.38124 l -1.55131,2.05052 h 1.58377 c 0.87108,0 1.65737,0.11907 1.74729,0.26459 0.10386,0.16802 -0.6146,0.26459 -1.96875,0.26459 -1.17275,0 -2.13228,-0.0948 -2.13228,-0.21067 z m 5.29166,-2.43517 v -2.64582 h 0.76135 c 0.41875,0 0.90958,-0.1786 1.09073,-0.39688 0.18117,-0.21829 0.48967,-0.39688 0.68555,-0.39688 0.2079,0 0.29277,0.16522 0.20389,0.39688 -0.1119,0.29161 0.0348,0.39688 0.55309,0.39688 0.40287,0 0.63524,0.11347 0.54185,0.26457 -0.0899,0.14553 -0.87088,0.26459 -1.73541,0.26459 h -1.57189 v 0.92604 0.92604 h 1.60313 c 1.00136,0 1.54173,0.0993 1.43958,0.26458 -0.0899,0.14552 -0.81133,0.26459 -1.6031,0.26459 h -1.43961 v 0.92604 0.92604 h 1.71981 c 0.97013,0 1.71978,0.11533 1.71978,0.26458 0,0.15287 -0.83785,0.26459 -1.98438,0.26459 h -1.98437 z"
           id="path1423"
           inkscape:connector-curvature="0"
           sodipodi:nodetypes="cscscccscccccccscsccsssscscccccscccsccccccscccssccscscccscssscscccccccccsccccscccccccscccscscssccssssscscccccccccscssscccsssccccsccscssssscsssccscscccscscccsssccccsccscccscsccccscscscscccscscccssscc" />
        <path
           style="color:#000000;font-style:normal;font-variant:normal;font-weight:normal;font-stretch:normal;font-size:medium;line-height:normal;font-family:sans-serif;font-variant-ligatures:normal;font-variant-position:normal;font-variant-caps:normal;font-variant-numeric:normal;font-variant-alternates:normal;font-feature-settings:normal;text-indent:0;text-align:start;text-decoration:none;text-decoration-line:none;text-decoration-style:solid;text-decoration-color:#000000;letter-spacing:normal;word-spacing:normal;text-transform:none;writing-mode:lr-tb;direction:ltr;text-orientation:mixed;dominant-baseline:auto;baseline-shift:baseline;text-anchor:start;white-space:normal;shape-padding:0;clip-rule:nonzero;display:inline;overflow:visible;visibility:visible;opacity:1;isolation:auto;mix-blend-mode:normal;color-interpolation:sRGB;color-interpolation-filters:linearRGB;solid-color:#000000;solid-opacity:1;vector-effect:none;fill:#ef3e2e;fill-opacity:1;fill-rule:nonzero;stroke:none;stroke-width:1.58749998;stroke-linecap:butt;stroke-linejoin:miter;stroke-miterlimit:4;stroke-dasharray:none;stroke-dashoffset:0;stroke-opacity:1;color-rendering:auto;image-rendering:auto;shape-rendering:auto;text-rendering:auto;enable-background:accumulate"
           d="m 88.574219,54.074219 -11.918868,-5.89e-4 0.743091,1.699808 11.191406,-0.113282 z"
           id="path1425"
           inkscape:connector-curvature="0"
           sodipodi:nodetypes="ccccc" />
        <path
           style="color:#000000;font-style:normal;font-variant:normal;font-weight:normal;font-stretch:normal;font-size:medium;line-height:normal;font-family:sans-serif;font-variant-ligatures:normal;font-variant-position:normal;font-variant-caps:normal;font-variant-numeric:normal;font-variant-alternates:normal;font-feature-settings:normal;text-indent:0;text-align:start;text-decoration:none;text-decoration-line:none;text-decoration-style:solid;text-decoration-color:#000000;letter-spacing:normal;word-spacing:normal;text-transform:none;writing-mode:lr-tb;direction:ltr;text-orientation:mixed;dominant-baseline:auto;baseline-shift:baseline;text-anchor:start;white-space:normal;shape-padding:0;clip-rule:nonzero;display:inline;overflow:visible;visibility:visible;opacity:1;isolation:auto;mix-blend-mode:normal;color-interpolation:sRGB;color-interpolation-filters:linearRGB;solid-color:#000000;solid-opacity:1;vector-effect:none;fill:#ee3e2d;fill-opacity:1;fill-rule:nonzero;stroke:none;stroke-width:1.58749998;stroke-linecap:butt;stroke-linejoin:miter;stroke-miterlimit:4;stroke-dasharray:none;stroke-dashoffset:0;stroke-opacity:1;color-rendering:auto;image-rendering:auto;shape-rendering:auto;text-rendering:auto;enable-background:accumulate"
           d="m 67.597656,55.605469 c 0.780498,0.03305 1.451267,0.06793 2.251953,0.10938 l 0.08594,-1.583985 -2.953437,-0.0014 z"
           id="path1427"
           inkscape:connector-curvature="0"
           sodipodi:nodetypes="ccccc" />
      </g>
    </g>
  </g>
</svg>
