<?xml version="1.0" encoding="UTF-8" standalone="no"?>
<!-- Created with Inkscape (http://www.inkscape.org/) -->

<svg
   xmlns:dc="http://purl.org/dc/elements/1.1/"
   xmlns:cc="http://creativecommons.org/ns#"
   xmlns:rdf="http://www.w3.org/1999/02/22-rdf-syntax-ns#"
   xmlns:svg="http://www.w3.org/2000/svg"
   xmlns="http://www.w3.org/2000/svg"
   xmlns:sodipodi="http://sodipodi.sourceforge.net/DTD/sodipodi-0.dtd"
   xmlns:inkscape="http://www.inkscape.org/namespaces/inkscape"
   width="80"
   height="80"
   viewBox="0 0 21.166666 21.166667"
   version="1.1"
   id="svg8"
   inkscape:version="0.92.4 (5da689c313, 2019-01-14)"
   sodipodi:docname="FFR_2019.svg">
  <defs
     id="defs2" />
  <sodipodi:namedview
     id="base"
     pagecolor="#ffffff"
     bordercolor="#666666"
     borderopacity="1.0"
     inkscape:pageopacity="0.0"
     inkscape:pageshadow="2"
     inkscape:zoom="10.25"
     inkscape:cx="40"
     inkscape:cy="40"
     inkscape:document-units="px"
     inkscape:current-layer="layer2"
     showgrid="false"
     units="px"
     inkscape:window-width="1920"
     inkscape:window-height="1017"
     inkscape:window-x="-8"
     inkscape:window-y="-8"
     inkscape:window-maximized="1" />
  <metadata
     id="metadata5">
    <rdf:RDF>
      <cc:Work
         rdf:about="">
        <dc:format>image/svg+xml</dc:format>
        <dc:type
           rdf:resource="http://purl.org/dc/dcmitype/StillImage" />
        <dc:title></dc:title>
      </cc:Work>
    </rdf:RDF>
  </metadata>
  <g
     inkscape:label="Calque 1"
     inkscape:groupmode="layer"
     id="layer1"
     style="display:inline"
     transform="translate(0,-275.83332)" />
  <g
     inkscape:groupmode="layer"
     id="layer2"
     inkscape:label="logo"
     transform="translate(0,-275.83332)">
    <g
       id="g872"
       transform="matrix(0.09080408,0,0,0.09080408,1.0709598,276.83377)">
      <path
         sodipodi:nodetypes="sccscccscscccccscsccssssssccssssccccssccsscccsscccccscccccscccsscccsccssccccccscsccccccccs"
         style="display:inline;fill:#e01d1e;stroke-width:0.26458335"
         d="m 106.65636,153.00775 c -0.37494,-0.37494 0.68155,-1.23239 3.03463,-2.46294 3.351,-1.75242 5.34569,-3.36115 6.79231,-5.47806 1.54124,-2.25536 1.59758,-2.61956 0.77821,-5.03072 -0.97676,-2.87431 -0.94938,-3.05317 0.35827,-2.34047 1.86488,1.0164 2.25962,0.27615 3.0335,-5.68869 0.82721,-6.37579 0.43425,-12.92362 -1.06391,-17.72818 -1.85036,-5.93408 -4.34145,-8.95043 -7.39179,-8.95043 -1.50729,0 -2.4082,0.63538 -6.34536,4.47517 -3.18998,3.11108 -4.03722,3.78404 -6.103454,4.84797 -3.402738,1.75211 -5.943992,2.40774 -9.374662,2.41862 -2.238822,0.007 -3.14933,-0.11421 -4.690316,-0.62494 -1.051706,-0.34856 -1.994755,-0.55119 -2.095662,-0.45028 -0.100909,0.10091 0.104733,0.49366 0.456983,0.87279 0.81188,0.87383 5.970927,4.30213 6.779364,4.50503 1.071052,0.26882 0.657476,0.8359 -1.310265,1.79659 -2.6289,1.28348 -4.640003,1.74613 -7.647154,1.7592 -3.95542,0.0172 -8.630528,-1.29545 -13.691915,-3.84433 -1.329904,-0.66973 -2.02991,-0.89319 -2.215761,-0.70734 -0.4391,0.4391 1.31654,3.05915 3.319163,4.95339 1.715178,1.62234 1.758919,1.69397 1.034513,1.69397 -1.189405,0 -4.559398,-0.93954 -6.458296,-1.80054 -7.285289,-3.30331 -13.406785,-11.24512 -16.98012,-22.02942 -2.507541,-7.567749 -3.485595,-14.176749 -3.247292,-21.942959 0.246409,-8.03035 1.271828,-14.12373 3.517495,-20.902081 2.504382,-7.559263 5.579441,-12.727462 10.390116,-17.462501 3.474006,-3.419382 5.969521,-5.077841 9.813121,-6.521553 3.921524,-1.472986 5.706031,-1.770028 10.590609,-1.762876 3.850722,0.0056 4.677688,0.08829 7.011459,0.700757 5.029142,1.319836 9.008832,3.736554 12.972338,7.877622 2.453456,2.563365 4.449026,5.352256 8.579016,11.989469 5.89503,9.473753 9.39474,12.897363 13.24339,12.955433 2.99449,0.0452 5.19114,-2.20314 5.82519,-5.962193 0.45023,-2.669281 0.0511,-4.527172 -2.6099,-12.149845 -2.83366,-8.117144 -4.57408,-13.6946 -5.48796,-17.587021 -0.90736,-3.86462 -1.16541,-9.962882 -0.53492,-12.641107 0.23336,-0.991296 0.4243,-1.894518 0.4243,-2.007159 0,-0.112643 -0.61524,-0.968457 -1.36719,-1.901811 -0.75195,-0.933354 -1.81381,-2.649508 -2.35969,-3.813674 -1.51797,-3.2372741 -2.35846,-8.1479541 -1.45398,-8.4950341 0.20646,-0.07923 1.24826,0.172019 2.3151,0.558326 1.06684,0.386307 4.0104,1.16922 6.54124,1.739807 2.53083,0.570586 5.42537,1.282783 6.4323,1.582659 2.36613,0.704665 3.14762,0.614951 3.5962,-0.412842 0.60833,-1.393795 0.77552,-1.589406 1.28007,-1.497592 0.80677,0.146812 4.59642,2.779742 6.45926,4.4877031 2.07927,1.906399 3.09507,3.315687 3.71855,5.159013 l 0.46537,1.375876 2.54937,0.963398 c 2.50571,0.946902 5.45456,2.563429 5.6286,3.085538 0.0487,0.146082 -0.38675,0.345902 -0.96765,0.444045 -2.72097,0.459704 -6.91074,3.31166 -6.90662,4.70129 0.001,0.327422 0.60194,1.369219 1.33548,2.315104 0.73354,0.945886 1.87735,2.434167 2.54181,3.307292 l 1.2081,1.5875 -0.16676,1.81369 c -0.19805,2.154079 -0.0543,2.446329 3.01044,6.119363 2.79988,3.355633 6.15804,7.863821 6.97258,9.360395 0.82496,1.515729 1.50075,3.973144 1.50075,5.457282 0,0.847085 0.22884,1.380567 1.0756,2.507496 4.49633,5.984061 6.73251,13.113831 6.04548,19.275251 -0.78141,7.00767 -3.71012,14.14169 -10.20055,24.847389 -3.11615,5.13998 -6.40046,11.43965 -7.6933,14.75663 -1.91909,4.92372 -5.18362,16.59639 -5.99374,21.43125 -0.39314,2.34629 -0.5287,4.21708 -0.46424,6.40694 0.0585,1.98703 2.30544,3.80173 7.30887,5.90287 2.16099,0.90748 3.18157,1.59808 3.0078,2.03529 -0.0536,0.13475 -2.12144,-0.20873 -4.5953,-0.76329 -6.5263,-1.46299 -10.02108,-1.90765 -12.09499,-1.5389 -0.91484,0.16266 -2.30281,0.58541 -3.08437,0.93944 -0.78158,0.35403 -1.46618,0.64369 -1.52136,0.64369 -0.0552,0 -0.10032,-0.33239 -0.10032,-0.73866 0,-0.52924 0.34352,-1.07309 1.21164,-1.91823 1.38479,-1.34813 2.9952,-3.9226 3.8361,-6.13253 l 0.57585,-1.51338 -0.69513,-2.22952 c -0.95391,-3.05954 -0.93846,-3.16723 0.35307,-2.4608 0.97393,0.53272 1.07915,0.54242 1.48524,0.13697 0.79354,-0.79228 1.91652,-6.52121 3.15217,-16.08086 0.97632,-7.55336 0.84466,-10.17219 -0.53808,-10.7028 -0.77466,-0.29726 -2.91517,-0.17176 -4.1082,0.24087 -5.01144,1.73329 -8.80617,8.56964 -11.89145,21.4229 -2.09007,8.70727 -2.55602,12.58144 -1.74626,14.51948 0.20141,0.48205 0.99127,1.40096 1.75523,2.04203 2.57617,2.16174 2.88629,2.48646 3.05206,3.19568 l 0.1653,0.7072 -1.67721,-0.56649 c -1.49719,-0.50569 -2.23095,-0.56439 -6.83658,-0.54695 -4.66201,0.0177 -5.52273,0.0956 -8.92861,0.80847 -2.07308,0.4339 -3.82506,0.73309 -3.89329,0.66486 z"
         id="path834"
         inkscape:connector-curvature="0" />
      <path
         sodipodi:nodetypes="csscscssssssssssscsscscscsssscccscsssssccccccccccsccccccsccscccsccccccssccscccccccccccscccscccsccccscssccsccccsscssscccssscccscccccsccscccccccccccc"
         style="fill:#b50617;stroke-width:0.26458335"
         d="m 78.486753,119.27787 c -7.99109,-2.8521 -14.05116,-9.44656 -16.32364,-17.76311 -0.52831,-1.933429 -0.6097,-2.849339 -0.6097,-6.861479 0,-4.01756 0.081,-4.92674 0.61224,-6.8713 1.49452,-5.47069 4.70983,-9.51908 9.30964,-11.72174 3.84149,-1.83953 5.42963,-2.16108 10.71562,-2.16955 5.22598,-0.008 6.59626,0.21453 12.18446,1.98207 4.72667,1.49504 8.053877,2.11177 11.392857,2.11177 3.94865,0 5.11868,-0.76418 1.96697,-1.28467 -4.42271,-0.7304 -8.452627,-2.4089 -13.283257,-5.53261 -6.63703,-4.29181 -11.09774,-5.88272 -16.49436,-5.88272 -6.52015,0 -13.41747,3.12796 -17.83241,8.08707 -6.1427,6.89984 -8.7235,17.36371 -6.78242,27.499389 0.49575,2.58862 0.49981,2.76884 0.0475,2.10939 -1.13603,-1.65624 -2.73232,-7.062499 -3.51336,-11.898979 -0.5661,-3.50543 -0.64562,-11.91759 -0.14882,-15.74271 2.29121,-17.6413 9.91508,-28.7294 21.96374,-31.9439 2.16766,-0.57832 3.15166,-0.68646 6.39808,-0.70317 3.24195,-0.0167 4.16155,0.0737 5.9343,0.58313 4.11422,1.18233 7.59349,3.27153 10.87757,6.53165 1.94666,1.93246 4.82188,5.57571 4.58516,5.80993 -0.0539,0.0534 -0.98292,-0.65666 -2.0644,-1.57784 -5.15892,-4.3942 -10.7512,-6.51124 -17.21596,-6.51735 -7.475,-0.007 -12.56585,2.48476 -16.94231,8.29276 -2.3726,3.14868 -5.60037,9.97279 -5.23522,11.06824 0.0578,0.17347 0.87447,-0.56536 1.81477,-1.64185 4.69512,-5.37514 9.25886,-7.96228 15.35255,-8.7032 6.06285,-0.73717 12.33691,0.85797 18.04919,4.5889 1.19601,0.78116 4.13909,3.02651 6.54019,4.98967 5.029037,4.1118 6.038887,4.82866 8.654117,6.14325 3.17918,1.59807 5.52333,2.13447 9.33754,2.13669 3.5421,0.002 5.27639,-0.35604 7.71897,-1.59378 0.6926,-0.35097 1.32276,-0.63813 1.40036,-0.63813 0.97321,0 -2.98401,4.02585 -5.74509,5.84471 -2.55126,1.68064 -5.30451,2.83775 -8.53361,3.58642 -2.86179,0.66351 -9.82931,0.64979 -15.610417,-0.0307 -4.9855,-0.58687 -11.60423,-0.66115 -14.41979,-0.16183 -6.57795,1.16656 -10.98478,4.2736 -13.6128,9.59771 -1.92219,3.89417 -2.4273,7.67031 -1.57848,11.800409 0.87993,4.28151 3.16223,8.35618 6.61366,11.80761 1.70833,1.70833 2.73682,2.48893 6.36967,4.83442 0.4669,0.30145 0.46512,0.31501 -0.041,0.3114 -0.29104,-0.002 -1.12448,-0.21624 -1.85208,-0.47593 z m 8.369,-8.36357 c -1.91554,-0.41563 -4.61042,-1.61311 -5.59088,-2.48431 l -0.66146,-0.58775 0.66146,0.17663 c 0.36381,0.0971 1.25677,0.35227 1.98438,0.56694 1.8674,0.55094 5.87094,0.33937 7.84379,-0.41452 2.66594,-1.01874 6.94452,-4.2595 6.37519,-4.82882 -0.12313,-0.12313 -0.93199,-0.0921 -1.79747,0.0688 -0.86548,0.161 -3.07204,0.24683 -4.90347,0.19074 -3.13282,-0.0959 -3.43518,-0.15383 -5.10932,-0.97801 -3.68912,-1.81614 -4.85818,-5.614119 -2.82428,-9.175339 2.10063,-3.67806 7.61647,-4.82283 13.10949,-2.72077 0.8037,0.30756 1.46128,0.64824 1.46128,0.75706 0,0.10882 -1.22039,0.24425 -2.71198,0.30096 -2.37111,0.0901 -2.93627,0.20848 -4.49644,0.94145 -2.03077,0.95408 -3.6395,2.0965 -3.6395,2.58456 0,0.21061 0.60244,0.39755 1.65365,0.51317 3.48757,0.38356 5.17316,1.01704 9.8477,3.70101 2.474637,1.420849 4.627487,2.271589 8.045817,3.179439 1.36486,0.36248 2.53561,0.71312 2.60168,0.77919 0.0661,0.0661 -0.40949,0.3544 -1.0568,0.64074 -0.64731,0.28633 -2.53558,1.4807 -4.19616,2.65415 -3.509727,2.48016 -5.766807,3.60481 -8.320097,4.14573 -2.26256,0.47932 -6.0398,0.47426 -8.27658,-0.0111 z m 40.182037,-7.44185 c -4.19692,-0.66367 -9.66583,-2.27656 -12.55377,-3.702349 -2.10595,-1.03972 -6.76081,-3.89737 -6.76081,-4.1505 0,-0.12605 0.20835,-0.14848 0.46302,-0.0498 3.25987,1.26269 9.45901,2.43834 14.15778,2.68499 5.32301,0.27941 12.07475,-0.72891 16.03116,-2.39414 5.5793,-2.34829 9.66169,-6.50502 11.51862,-11.72836 1.93016,-5.42931 1.38728,-12.07921 -1.31929,-16.16062 -0.51571,-0.77767 -0.89636,-1.45524 -0.84589,-1.5057 0.0505,-0.0505 0.57292,0.12365 1.161,0.38694 4.52114,2.02418 7.85849,9.5164 7.43348,16.68791 -0.19206,3.24093 -0.69422,5.11013 -2.19403,8.16706 -2.13515,4.35185 -6.50525,8.25287 -11.34205,10.124579 -3.5215,1.36274 -6.31302,1.81429 -10.98672,1.77718 -2.25557,-0.0179 -4.3987,-0.0796 -4.7625,-0.13715 z m -6.28244,-11.754999 c -3.06332,-0.23361 -7.01446,-1.03654 -11.81965,-2.40192 -2.04932,-0.58231 -4.96052,-1.34019 -6.46932,-1.68417 -1.50881,-0.34398 -2.818497,-0.70715 -2.910417,-0.80704 -0.0919,-0.0999 2.035527,-0.0759 4.727657,0.0534 14.07877,0.67585 20.0755,-0.0234 26.32604,-3.06994 5.52472,-2.69272 8.45365,-6.58367 9.06388,-12.04092 l 0.20709,-1.85208 0.99353,1.4552 c 1.9006,2.78382 2.56586,6.85984 1.63255,10.00264 -1.58349,5.33218 -8.36006,9.74922 -15.7335,10.25527 -1.09141,0.0749 -2.34157,0.16767 -2.77813,0.20616 -0.43656,0.0385 -1.89444,-0.014 -3.23973,-0.11656 z m 6.40811,-25.17615 c 1.49384,-4.74577 1.27708,-6.65342 -1.79626,-15.80886 -2.82112,-8.40407 -3.29185,-11.39018 -2.43391,-15.43956 0.45007,-2.12426 1.80983,-5.212193 2.61473,-5.937883 0.49358,-0.44502 0.8271,-0.48821 2.68039,-0.34718 l 2.11667,0.16108 0.0714,0.92604 c 0.29577,3.834363 1.81829,7.585003 5.01727,12.359773 2.89015,4.31382 3.61379,5.65801 4.60166,8.54784 0.76767,2.24566 0.85835,2.82631 0.86686,5.55073 0.006,1.76439 -0.11387,3.25742 -0.28418,3.55378 -0.25307,0.44038 -0.33875,0.29404 -0.61941,-1.05791 -0.76866,-3.70258 -2.03061,-5.60488 -7.27238,-10.96254 -4.11681,-4.20783 -5.26602,-5.64678 -6.27626,-7.8586 -0.57847,-1.2665 -0.58007,-1.26758 -0.67114,-0.45184 -0.12502,1.11985 0.96517,3.89391 2.6747,6.80595 3.22417,5.49209 4.14041,8.14493 4.14041,11.98793 0,3.66537 -1.60986,6.699 -4.27705,8.05969 -1.26549,0.64561 -1.38178,0.63669 -1.15353,-0.0885 z m 28.08257,-2.9472 c -1.04495,-1.51998 -2.5659,-2.92964 -4.59418,-4.25802 -1.08962,-0.71363 -1.12448,-0.78007 -1.12448,-2.14348 0,-3.19713 -1.06291,-5.98354 -3.62498,-9.50287 -2.06779,-2.84037 -2.53217,-3.58833 -2.34443,-3.77607 0.0871,-0.0871 0.60259,0.25939 1.14562,0.76989 0.54304,0.51049 1.93983,1.70964 3.104,2.66477 3.60309,2.95613 5.03479,4.64997 6.48767,7.67558 1.53386,3.19424 2.16882,5.73958 2.05858,8.25215 l -0.0796,1.81368 z M 120.33767,23.438999 c -3.23158,-5.051766 -2.01972,-9.366512 3.18584,-11.343039 1.92785,-0.731992 5.52751,-0.978622 7.80479,-0.534742 1.95676,0.381405 5.31449,1.720632 5.80954,2.317129 0.30139,0.363163 0.27397,0.394794 -0.20931,0.241406 -3.20596,-1.017532 -8.35063,-1.255335 -10.47356,-0.484122 -2.87004,1.04262 -4.9132,3.271224 -5.53135,6.033398 -0.26504,1.184344 -0.24545,1.699212 0.1212,3.184974 0.24054,0.974741 0.38451,1.825088 0.31994,1.889661 -0.0646,0.06457 -0.52676,-0.522527 -1.02709,-1.304665 z m 11.929,-2.747826 c -0.41324,-0.227777 -0.78935,-0.70876 -0.87588,-1.120109 -0.0834,-0.396504 -0.27448,-0.945232 -0.42462,-1.219396 -0.20129,-0.367565 -0.17972,-0.55759 0.0821,-0.723553 0.57383,-0.363693 2.24522,-0.266609 3.40599,0.197839 1.00986,0.404067 1.06648,0.482642 0.90554,1.256771 -0.33038,1.589201 -1.76995,2.337782 -3.09316,1.608448 z"
         id="path830"
         inkscape:connector-curvature="0" />
      <path
         style="fill:#003374;stroke-width:0.26458335"
         d="m 43.316068,191.02568 v -16.48996 l -1.459738,-1.95114 c -0.802857,-1.07312 -1.418013,-2.07631 -1.367015,-2.22931 0.06361,-0.19081 5.652847,-0.27817 17.797759,-0.27817 h 17.705032 l 0.0732,3.9026 0.0732,3.90261 h -10.83335 c -5.958341,0 -11.02168,0.0723 -11.251863,0.16059 -0.355687,0.13649 -0.418515,0.75167 -0.418515,4.09779 v 3.93718 l 9.723438,0.0694 9.72344,0.0694 0.0732,3.9026 0.0732,3.90261 -9.20135,0.004 c -5.060737,0.002 -9.469233,0.0754 -9.796654,0.16315 l -0.595313,0.15954 v 6.58372 6.58373 h -5.159375 -5.159375 v -16.48996 z m 42.774308,16.31357 c -0.097,-0.097 -0.17639,-7.54962 -0.17639,-16.56135 v -16.38496 l -1.46355,-2.00406 c -0.80495,-1.10223 -1.36369,-2.10392 -1.24164,-2.22597 0.12206,-0.12206 8.13276,-0.19129 17.801574,-0.15386 l 17.57966,0.068 0.0732,3.9026 0.0732,3.90261 H 107.932 c -8.264244,0 -10.911464,0.0783 -11.259744,0.33294 -0.39972,0.29228 -0.44629,0.78509 -0.3813,4.03489 l 0.074,3.70196 9.789584,0.14047 c 5.38427,0.0773 9.81935,0.16655 9.85573,0.19843 0.0364,0.0319 0.0662,1.78438 0.0662,3.89443 v 3.83646 h -9.41011 c -5.98064,0 -9.596614,0.0998 -9.921874,0.27389 -0.48457,0.25933 -0.51177,0.61802 -0.51177,6.74688 v 6.47298 h -4.983 c -2.74064,0 -5.06236,-0.0794 -5.15937,-0.17639 z m 42.597914,0 c -0.097,-0.097 -0.17639,-7.54962 -0.17639,-16.56135 v -16.38496 l -1.45257,-1.98902 c -0.79891,-1.09397 -1.38719,-2.09479 -1.3073,-2.22407 0.20161,-0.32621 19.91658,-0.29661 24.01331,0.0361 5.77189,0.46869 9.8637,2.00799 12.63017,4.75134 3.24155,3.21446 4.25429,7.98078 2.61473,12.30581 -0.79356,2.09335 -2.92443,4.23997 -5.49275,5.53336 -1.16934,0.58887 -1.90142,1.12077 -1.90142,1.38149 0,0.39951 1.14901,1.75799 8.41788,9.95254 l 2.99392,3.37519 -5.90434,-0.0142 -5.90434,-0.0142 -6.54843,-7.42168 -6.54844,-7.42168 v -1.39348 -1.39348 l 2.18281,-0.17617 c 6.98067,-0.56339 9.59859,-2.47189 9.12722,-6.65387 -0.25325,-2.24682 -1.96742,-3.70021 -5.28243,-4.4788 -2.28849,-0.53749 -9.96033,-0.84523 -10.73505,-0.43061 l -0.58422,0.31266 v 14.54277 14.54278 h -4.98298 c -2.74065,0 -5.06237,-0.0794 -5.15938,-0.17639 z"
         id="path828"
         inkscape:connector-curvature="0" />
    </g>
  </g>
</svg>
