<?xml version="1.0" encoding="UTF-8"?>
<svg width="80px" height="80px" viewBox="0 0 80 80" version="1.1" xmlns="http://www.w3.org/2000/svg" xmlns:xlink="http://www.w3.org/1999/xlink">
    <!-- Generator: Sketch 55.2 (78181) - https://sketchapp.com -->
    <title>FFR_Logo_Match_80x80/Coq/Light</title>
    <desc>Created with Sketch.</desc>
    <g id="FFR_Logo_Match_80x80/Coq/Light" stroke="none" stroke-width="1" fill="none" fill-rule="evenodd">
        <g id="logo_FRANCE_RUGBY_corpo_2coul-Fond-blanc-rvb" transform="translate(7.000000, 0.000000)">
            <g id="Group">
                <path d="M0.0586135747,43.2670678 C-0.150356561,29.9547114 5.68041991,16.8994878 17.7853973,16.4794192 C28.9602027,16.0924469 32.0922063,25.4739794 35.6854733,30.3849635 C37.1355222,32.3631048 38.6518299,34.0841132 40.4866896,34.2928745 C42.8974914,34.5678286 44.5692525,31.5586097 43.2033014,27.7499876 C42.3444851,25.3543235 40.048362,18.9310924 39.3449991,15.8505892 C38.7002498,13.0246731 38.4046335,10.1020138 39.3246118,7.85910198 C36.8806805,5.34887375 36.3404163,2.67570981 36.3072869,1.17619213 C36.3047385,0.992889463 36.3072869,0.824862016 36.3149321,0.679747402 C36.3582552,-0.0967430759 36.7430661,-0.0458256675 37.0820054,0.114564169 C39.2736434,1.17364626 41.9545774,1.27802695 45.8536543,2.49749888 C46.3556923,2.65534285 46.5544688,2.37275123 46.6487602,1.7210084 C46.7583421,0.962339018 47.3138968,1.05399035 47.5585448,1.19401323 C50.3159312,2.74954005 53.0376398,5.09683258 53.1191891,7.07242802 C54.37301,7.42375814 56.2511928,8.10859729 57.7980814,9.34079857 C57.9204054,9.43754164 57.948438,9.60302322 57.7675005,9.62593605 C54.9234679,9.99763314 53.7996163,11.2909353 53.3791276,11.8790314 C53.3154172,11.9681368 53.3230624,12.1183432 53.3689339,12.2099945 C54.0009412,13.5873104 56.167095,15.2293968 56.1084814,16.3775844 C56.075352,17.0420566 55.7848326,17.5359554 55.7822842,17.5385013 C56.791457,19.3358858 57.7547584,20.0130874 59.8954281,22.8873751 C60.672695,23.9311819 61.2588308,24.7687733 61.6258027,25.6267316 C61.982581,26.4566854 62.1303891,27.2993685 62.0360977,28.3559047 C62.0360977,28.3559047 65.9096905,32.7577147 65.9708525,37.9894784 C66.0243692,42.5694993 63.2058208,48.193327 60.9402787,51.7855502 C58.131924,56.2433693 56.4805502,59.7413953 55.695638,62.2083437 C54.5131729,65.9227686 53.5422262,69.5710009 53.1599638,71.7833623 C52.8719928,73.4559992 52.8133792,74.6932922 52.9892199,75.4926955 C53.1727059,76.3150117 55.254762,77.5115708 57.9917611,78.5222813 C58.4530244,78.6928547 58.5957357,79.6602854 58.5957357,79.6730148 C56.7379403,79.2325792 51.5901394,77.9570981 49.8725068,78.1302173 C49.225209,78.1938641 48.753752,78.3007906 48.3612959,78.4331759 C47.7114498,78.6521207 47.2935095,78.9321665 46.6895348,79.1816618 C46.684438,79.1536572 46.5060489,78.2524191 46.7710842,77.901089 C46.8755692,77.7559743 47.6018679,77.1958829 47.9841303,76.7045299 C48.5473303,75.9789568 49.1054335,74.9351499 49.6304072,73.5476505 C49.5717937,72.4096465 48.7639457,71.3480185 48.8684308,70.4747849 C48.9627222,69.6932027 49.4035982,71.1112525 50.4509973,70.9483168 C51.1645538,68.3617125 51.5952362,65.2557506 51.7659801,63.8555219 C52.2527276,59.9196062 52.8617991,57.0402267 51.5136869,56.9231167 C46.6360181,56.5005022 44.615124,63.9955447 43.6467258,67.8958182 C42.7394896,71.5516881 42.3546787,73.6316643 42.3954534,74.894416 C42.4209376,75.7320074 42.6350045,76.210631 43.0019765,76.5543235 C43.8556959,77.3511809 44.6788344,77.8043459 44.9183855,78.0818458 C45.0891294,78.2804236 45.3184869,79.0518224 45.3516163,79.4846204 C45.3337774,79.471891 44.1538606,78.8099647 42.1864833,78.6393914 C40.8638552,78.5248272 39.1615131,78.5630153 37.5763982,78.8328775 C35.8077973,79.1307444 33.4658027,79.6551937 33.4658027,79.6551937 C33.4658027,79.6551937 33.5218679,78.6954005 33.8302262,78.5451942 C35.0865955,77.9290935 36.3964814,77.3639103 37.5024941,76.4830391 C38.7002498,75.5283377 39.2736434,74.2808612 39.5259367,73.7793247 C39.4902588,72.6234996 38.542248,71.5975138 38.8047348,70.5995326 C38.9092199,70.1998309 39.5259367,71.533867 40.458657,71.2181791 C41.5137014,66.6050619 41.554476,62.1116006 40.3541719,58.5830242 C39.5794534,56.3146537 38.8480579,55.2301129 37.9382733,54.6598379 C37.3776217,54.3059619 36.6666136,54.0106409 35.6880217,54.5452737 C34.8088181,55.0289891 33.259381,56.8110984 33.0427656,57.0504102 C29.8750842,60.5280692 24.125857,61.5922431 21.2130172,59.4969917 C21.2130172,59.4969917 21.2130172,59.4969917 21.2104688,59.4969917 C23.6365611,61.8391925 26.2283005,62.7709811 26.2283005,62.7709811 C26.2283005,62.7709811 23.2262661,65.4925165 18.4836633,64.5174482 C17.4260706,64.3010492 15.0101719,63.6671274 12.115171,62.0021282 C12.543305,62.8855452 13.1243439,63.715499 13.8175131,64.3850629 C15.1681738,65.6936403 15.9556344,65.8693054 15.9556344,65.8693054 C4.53872941,65.8718512 0.183485973,51.31711 0.0586135747,43.2670678 Z M39.6711964,46.7269057 C50.3592543,48.4861021 56.6793267,41.0801651 51.1671023,34.8631495 C51.6513014,37.7909005 50.2038009,40.4844314 47.3495747,42.1723435 C44.2940235,43.9748198 39.6660995,44.6622048 35.254791,44.323604 C32.6452127,44.1250261 30.5427692,43.93154 27.4591855,44.2905077 C32.438791,44.3134205 34.4316525,45.8664015 39.6711964,46.7269057 Z M56.5136796,29.430262 C56.5136796,29.430262 59.2914534,30.7108349 60.1910443,33.2414301 C60.1910443,33.2414301 61.1161195,30.4587937 58.5728,26.2428323 C57.3036887,24.1424892 54.9285647,23.0528566 52.8719928,20.7844861 C53.779229,23.5849436 56.7353919,24.6007459 56.5136796,29.430262 Z M43.8607928,18.0833176 C44.2430552,20.412789 45.0279674,21.4285913 48.5473303,24.7585898 C51.50859,27.5615932 51.9392724,30.4078763 51.2766842,32.2154443 C52.9178643,28.2897121 52.12021,24.8604246 49.30421,20.9907016 C46.9800543,17.7930884 46.4423385,15.5501765 46.5111457,13.5847646 C45.4510045,13.7629755 44.5514136,13.6102233 44.0340851,13.4447417 C44.0315367,13.4447417 44.0315367,13.4421958 44.0289882,13.4421958 C43.8531475,13.6331361 41.2410208,16.5736164 42.5254226,21.5940729 C43.1319457,23.9642783 43.8607928,25.7362041 43.9117611,25.894048 L43.9117611,25.8965939 C45.710943,30.6039083 45.2012597,32.9537467 44.1767964,34.1528517 C48.7664941,32.7271642 48.3358118,27.6303317 46.0193014,23.9235443 C44.0187946,20.7157476 43.8811801,19.7788673 43.8607928,18.0833176 Z M32.5967928,47.9565611 C32.5967928,47.9565611 33.9398081,48.8348864 36.2919964,50.275849 C41.1059548,53.2290587 51.2282643,55.5050669 57.1788163,49.5477301 C63.1523041,43.5674805 59.5284561,33.4807419 54.8775964,33.2210631 C58.1726986,34.9089752 59.821524,46.9280294 48.4479421,49.6444732 C39.926038,51.6811695 32.5967928,47.9565611 32.5967928,47.9565611 Z M12.8185339,34.3565213 C18.6926335,31.3982199 23.5601086,33.4527373 27.4158624,36.1157178 C31.7277828,39.0943862 35.7721195,39.137666 35.7721195,39.137666 C34.1131005,39.9574362 30.1656036,39.4431704 27.4209593,38.4120929 C21.6411511,36.2328278 10.7899946,36.0367958 9.72475656,46.9738551 C8.97552217,54.6852966 14.3424869,61.1696286 21.554505,62.1116006 C15.3108851,59.8508677 10.7517683,52.8089901 13.7945774,46.523236 C16.8322896,40.2400278 24.2864072,41.0139725 29.6202425,41.6275272 C32.6401158,41.9763115 34.8470443,41.9330317 36.4780308,41.6580777 C41.6003475,40.7899359 44.6686407,37.2409925 45.0509032,35.9909701 C43.0733321,37.6992492 37.99179,38.9365422 32.9917973,35.4588832 C29.1462371,32.7831734 25.1401267,27.4393914 17.2629719,28.1267764 C13.4811222,28.4577395 10.107019,30.7031973 7.81599276,34.26487 C8.93474751,29.9368903 11.8501357,24.636388 17.367457,23.6995077 C26.1289122,22.2127194 30.9938389,29.2062254 30.9938389,29.2062254 C30.9938389,29.2062254 26.9061792,20.2829496 18.0478842,20.7793944 C9.01374842,21.2860226 4.39346968,29.2062254 3.4582009,38.8143404 C2.43118914,49.3644274 6.40671855,54.5070857 6.40671855,54.5070857 C6.37613756,54.4332554 6.34555656,54.3594252 6.31497557,54.2855949 C5.97858462,53.4047238 5.7110009,52.5060315 5.55809593,51.5946099 C3.99846516,42.2461737 8.62638914,36.4695938 12.8185339,34.3565213 Z M35.9122824,53.1068569 C31.6895566,52.3099995 30.10699,51.4647705 28.4403258,50.4031426 C26.7685647,49.3364229 24.8827367,48.8297946 22.9484887,48.9087166 C26.0473629,45.6474566 30.2802824,47.2208045 30.382219,47.2691761 C28.6187149,46.4035801 26.9647928,45.4361494 24.3781502,45.718741 C21.5290208,46.031883 20.3542009,48.2162399 20.5886552,49.9652528 C21.2512434,54.8966038 29.1717213,52.8522699 29.1717213,52.8522699 C29.1717213,52.8522699 26.3531729,56.5208692 21.934219,55.8003878 C20.3185231,55.5381632 19.2201557,54.7820397 18.5295348,53.8146089 L18.5295348,53.8171548 C19.956648,56.0066034 22.0947692,57.3457312 25.8052633,57.2769927 C29.3730462,57.2158918 30.8332887,55.739287 33.3307367,54.0030033 C34.0952615,53.478554 35.0865955,53.0610313 35.9122824,53.1068569 Z M43.6671131,5.9038735 C45.8103312,4.69203918 50.3541575,5.70274974 51.9341756,6.82038685 C50.6523222,5.78421759 47.9790335,4.14976878 45.2420344,4.24396599 C43.8149213,4.2948834 42.6018751,4.50873651 41.3837321,5.36924071 C38.633991,7.31428571 40.5147222,10.9777932 42.6859729,12.6453384 C42.2374516,12.2150863 41.8832217,11.6448113 41.6258317,10.9166924 C40.9250172,8.95128039 41.6283801,7.0571528 43.6671131,5.9038735 Z M46.7991167,8.3911889 C46.7175674,8.9334593 47.1609919,9.44517926 47.7929991,9.53937646 C48.4224579,9.6310278 48.9984,9.2695142 49.0799493,8.72469793 C49.1079819,8.55667048 49.0748525,8.39373477 49.0111421,8.24352842 C49.0111421,8.24352842 49.2812742,8.30208344 49.4927928,8.38355129 L49.2940163,8.01185421 C48.7155258,7.6859828 48.0911638,7.52813883 47.8490643,7.49504251 C46.5493719,7.30410223 46.0473339,8.12387251 46.0473339,8.12387251 C46.3582407,8.06022575 46.9036018,8.03731291 46.9392796,8.03731291 C46.867924,8.1416936 46.8195041,8.26134951 46.7991167,8.3911889 Z" id="Combined-Shape" fill="#FFFFFF" fill-rule="nonzero"></path>
                <g transform="translate(39.578100, 4.073393)"></g>
            </g>
        </g>
    </g>
</svg>